<svg width="0" height="0" class="hidden">
	<symbol xmlns="http://www.w3.org/2000/svg" id="home-icon" viewBox="0 0 22 19" fill="none">
		<path fill-rule="evenodd" clip-rule="evenodd" d="M9.69795 0.799014C10.0605 0.488089 10.5223 0.317169 11 0.317169C11.4776 0.317169 11.9394 0.488089 12.302 0.799014L18.638 6.22901L21.125 8.21901C21.2275 8.30109 21.3129 8.40256 21.3763 8.51764C21.4396 8.63272 21.4797 8.75915 21.4941 8.88971C21.5086 9.02026 21.4973 9.1524 21.4607 9.27856C21.4241 9.40473 21.363 9.52245 21.281 9.62501C21.1989 9.72758 21.0974 9.81297 20.9823 9.87631C20.8672 9.93966 20.7408 9.97972 20.6103 9.99421C20.4797 10.0087 20.3476 9.99732 20.2214 9.96074C20.0952 9.92416 19.9775 9.86309 19.875 9.78101L19 9.08101V17C19 17.5304 18.7892 18.0392 18.4142 18.4142C18.0391 18.7893 17.5304 19 17 19H13V14C13 13.4696 12.7892 12.9609 12.4142 12.5858C12.0391 12.2107 11.5304 12 11 12C10.4695 12 9.96081 12.2107 9.58574 12.5858C9.21067 12.9609 8.99995 13.4696 8.99995 14V19H4.99995C4.46952 19 3.96081 18.7893 3.58574 18.4142C3.21067 18.0392 2.99995 17.5304 2.99995 17V9.08001L2.12495 9.78001C2.02309 9.867 1.90478 9.93263 1.77707 9.97301C1.64935 10.0134 1.51482 10.0277 1.38146 10.0151C1.24811 10.0025 1.11865 9.96322 1.00076 9.89962C0.882872 9.83601 0.778965 9.74938 0.695205 9.64484C0.611446 9.54031 0.549541 9.42002 0.513165 9.2911C0.476789 9.16218 0.466684 9.02727 0.48345 8.89438C0.500215 8.76148 0.543509 8.63331 0.610762 8.51746C0.678016 8.40162 0.767857 8.30047 0.874953 8.22001L3.36195 6.23001L9.69795 0.799014Z" fill="currentColor"/>
	</symbol>
	<symbol xmlns="http://www.w3.org/2000/svg" id="appointments-icon" viewBox="0 0 18 20" fill="none">
		<path fill-rule="evenodd" clip-rule="evenodd" d="M5 0C5.26522 0 5.51957 0.105357 5.70711 0.292893C5.89464 0.48043 6 0.734784 6 1V2H12V1C12 0.734784 12.1054 0.48043 12.2929 0.292893C12.4804 0.105357 12.7348 0 13 0C13.2652 0 13.5196 0.105357 13.7071 0.292893C13.8946 0.48043 14 0.734784 14 1V2H15C15.7956 2 16.5587 2.31607 17.1213 2.87868C17.6839 3.44129 18 4.20435 18 5V6H0V5C0 4.20435 0.316071 3.44129 0.87868 2.87868C1.44129 2.31607 2.20435 2 3 2H4V1C4 0.734784 4.10536 0.48043 4.29289 0.292893C4.48043 0.105357 4.73478 0 5 0ZM0 8V17C0 17.7956 0.316071 18.5587 0.87868 19.1213C1.44129 19.6839 2.20435 20 3 20H15C15.7956 20 16.5587 19.6839 17.1213 19.1213C17.6839 18.5587 18 17.7956 18 17V8H0Z" fill="currentColor"/>
	</symbol>
	<symbol xmlns="http://www.w3.org/2000/svg" id="patient-icon" viewBox="0 0 20 20" fill="none">
		<path d="M15.6664 17.5V15.833C15.6663 15.2144 15.4211 14.6211 14.9838 14.1836C14.5462 13.746 13.9522 13.5 13.3334 13.5H6.66638C6.04766 13.5001 5.45448 13.7461 5.01697 14.1836C4.57946 14.6211 4.33346 15.2143 4.33337 15.833V17.5C4.33337 18.0523 3.88566 18.5 3.33337 18.5C2.78109 18.5 2.33337 18.0523 2.33337 17.5V15.833C2.33346 14.6839 2.79032 13.5821 3.60291 12.7695C4.41549 11.957 5.51723 11.5001 6.66638 11.5H13.3334C14.4826 11.5 15.5852 11.9569 16.3978 12.7695C17.2102 13.5821 17.6663 14.684 17.6664 15.833V17.5C17.6664 18.0523 17.2187 18.5 16.6664 18.5C16.1142 18.4998 15.6664 18.0522 15.6664 17.5Z" fill="currentColor"/>
		<path d="M12.3336 5.83301C12.3334 4.54449 11.2882 3.5 9.99963 3.5C8.71123 3.50018 7.6668 4.5446 7.66663 5.83301C7.66663 7.12156 8.71112 8.16682 9.99963 8.16699C11.2883 8.16699 12.3336 7.12167 12.3336 5.83301ZM14.3336 5.83301C14.3336 8.22624 12.3929 10.167 9.99963 10.167C7.60655 10.1668 5.66663 8.22613 5.66663 5.83301C5.6668 3.44003 7.60666 1.50018 9.99963 1.5C12.3928 1.5 14.3334 3.43992 14.3336 5.83301Z" fill="currentColor"/>
	</symbol>
	<symbol fill="currentColor" id="doctor-icon" viewBox="0 0 32 32" style="fill-rule:evenodd;clip-rule:evenodd;stroke-linejoin:round;stroke-miterlimit:2;" xmlns="http://www.w3.org/2000/svg">
	<g stroke-width="0"></g><g stroke-linecap="round" stroke-linejoin="round"></g><g>
		<path d="M9.733,14.107c-1.387,0.252 -2.676,0.921 -3.687,1.932c-1.309,1.309 -2.044,3.084 -2.044,4.935l0,4.039c0,1.657 1.343,3 3,3c4.184,-0 13.816,-0 18,-0c1.657,-0 3,-1.343 3,-3l0,-4.039c0,-1.851 -0.735,-3.626 -2.044,-4.935c-1.011,-1.011 -2.3,-1.68 -3.687,-1.932c0.468,-0.939 0.731,-1.997 0.731,-3.117c0,-3.863 -3.137,-7 -7,-7c-3.863,0 -7,3.137 -7,7c0,1.12 0.263,2.178 0.731,3.117Zm12.263,1.984l-0,2.079c1.164,0.412 2,1.524 2,2.83c0,1.101 0.004,1.995 0.004,1.995c0.003,0.552 -0.443,1.002 -0.995,1.005c-0.552,0.002 -1.002,-0.444 -1.005,-0.995c0,-0 -0.004,-0.899 -0.004,-2.005c0,-0.552 -0.446,-1 -0.997,-1c-0.551,-0 -0.997,0.448 -0.997,1l-0.002,2.001c-0.001,0.552 -0.449,1 -1.001,0.999c-0.552,-0.001 -1,-0.449 -0.999,-1.001c-0,-0 0.002,-2 0.002,-1.999c0,-1.304 0.833,-2.414 1.994,-2.828l-0,-1.433c-1.133,0.789 -2.51,1.251 -3.994,1.251c-1.489,0 -2.871,-0.466 -4.006,-1.26l-0,1.441c1.165,0.412 2,1.524 2,2.829c0,1.656 -1.344,3 -3,3c-1.656,-0 -3,-1.344 -3,-3c-0,-1.305 0.835,-2.417 2,-2.829l-0,-2.078c-0.954,0.193 -1.837,0.662 -2.535,1.36c-0.934,0.934 -1.459,2.201 -1.459,3.521c0,0 0,4.039 0,4.039c0,0.552 0.448,1 1,1l18,-0c0.552,-0 1,-0.448 1,-1c0,-0 0,-4.039 0,-4.039c0,-1.32 -0.525,-2.587 -1.458,-3.521c-0.701,-0.701 -1.59,-1.171 -2.548,-1.362Zm-11,3.909c0.552,-0 1,0.448 1,1c0,0.552 -0.448,1 -1,1c-0.552,-0 -1,-0.448 -1,-1c-0,-0.552 0.448,-1 1,-1Zm5.006,-14.01c2.76,0 5,2.241 5,5c0,2.76 -2.24,5 -5,5c-2.76,0 -5,-2.24 -5,-5c0,-2.759 2.24,-5 5,-5Z"></path>
	</g>
	</symbol>
	<symbol viewBox="0 0 24 24" id="sun-icon" fill="none" xmlns="http://www.w3.org/2000/svg">
		<g stroke-width="0"></g><g stroke-linecap="round" stroke-linejoin="round"></g><g> <circle cx="12" cy="12" r="5" stroke="currentColor" stroke-width="1.5"></circle> <path d="M12 2V4" stroke="currentColor" stroke-width="1.5" stroke-linecap="round"></path> <path d="M12 20V22" stroke="currentColor" stroke-width="1.5" stroke-linecap="round"></path> <path d="M4 12L2 12" stroke="currentColor" stroke-width="1.5" stroke-linecap="round"></path> <path d="M22 12L20 12" stroke="currentColor" stroke-width="1.5" stroke-linecap="round"></path> <path d="M19.7778 4.22266L17.5558 6.25424" stroke="currentColor" stroke-width="1.5" stroke-linecap="round"></path> <path d="M4.22217 4.22266L6.44418 6.25424" stroke="currentColor" stroke-width="1.5" stroke-linecap="round"></path> <path d="M6.44434 17.5557L4.22211 19.7779" stroke="currentColor" stroke-width="1.5" stroke-linecap="round"></path> <path d="M19.7778 19.7773L17.5558 17.5551" stroke="currentColor" stroke-width="1.5" stroke-linecap="round"></path> </g>
	</symbol>
	<symbol viewBox="0 0 24 24" id="moon-icon" fill="none" xmlns="http://www.w3.org/2000/svg">
		<g stroke-width="0"></g><g stroke-linecap="round" stroke-linejoin="round"></g><g> <path d="M21.0672 11.8568L20.4253 11.469L21.0672 11.8568ZM12.1432 2.93276L11.7553 2.29085V2.29085L12.1432 2.93276ZM21.25 12C21.25 17.1086 17.1086 21.25 12 21.25V22.75C17.9371 22.75 22.75 17.9371 22.75 12H21.25ZM12 21.25C6.89137 21.25 2.75 17.1086 2.75 12H1.25C1.25 17.9371 6.06294 22.75 12 22.75V21.25ZM2.75 12C2.75 6.89137 6.89137 2.75 12 2.75V1.25C6.06294 1.25 1.25 6.06294 1.25 12H2.75ZM15.5 14.25C12.3244 14.25 9.75 11.6756 9.75 8.5H8.25C8.25 12.5041 11.4959 15.75 15.5 15.75V14.25ZM20.4253 11.469C19.4172 13.1373 17.5882 14.25 15.5 14.25V15.75C18.1349 15.75 20.4407 14.3439 21.7092 12.2447L20.4253 11.469ZM9.75 8.5C9.75 6.41182 10.8627 4.5828 12.531 3.57467L11.7553 2.29085C9.65609 3.5593 8.25 5.86509 8.25 8.5H9.75ZM12 2.75C11.9115 2.75 11.8077 2.71008 11.7324 2.63168C11.6686 2.56527 11.6538 2.50244 11.6503 2.47703C11.6461 2.44587 11.6482 2.35557 11.7553 2.29085L12.531 3.57467C13.0342 3.27065 13.196 2.71398 13.1368 2.27627C13.0754 1.82126 12.7166 1.25 12 1.25V2.75ZM21.7092 12.2447C21.6444 12.3518 21.5541 12.3539 21.523 12.3497C21.4976 12.3462 21.4347 12.3314 21.3683 12.2676C21.2899 12.1923 21.25 12.0885 21.25 12H22.75C22.75 11.2834 22.1787 10.9246 21.7237 10.8632C21.286 10.804 20.7293 10.9658 20.4253 11.469L21.7092 12.2447Z" fill="currentColor"></path> </g>
	</symbol>
</svg>