<svg width="201" height="459" viewBox="0 0 201 459" fill="none" xmlns="http://www.w3.org/2000/svg">
<path d="M199.751 106.26L3.3995 106.136L91.0146 357.105L119.711 357.277L199.751 106.26Z" fill="#FFDFBF" fill-opacity="0.4"/>
<path d="M101.739 0.592736C156.521 0.919868 200.765 40.6225 200.475 89.1949C200.185 137.767 155.47 176.939 100.688 176.612C45.9059 176.285 1.66243 136.582 1.95248 88.0095C2.24253 39.437 46.957 0.265605 101.739 0.592736Z" fill="#FFDFBF"/>
<g opacity="0.5">
<path d="M118.4 359.733L117.433 451.391C117.289 455.286 114.098 458.39 110.182 458.348L96.9766 458.209C93.0601 458.168 89.9149 454.997 89.874 451.1L89.8535 451.1L90.8208 359.442L118.4 359.733Z" fill="black"/>
<path d="M118.421 357.705L118.394 360.26C118.374 362.156 116.822 363.676 114.926 363.656L94.2112 363.437C92.3144 363.417 90.7948 361.865 90.8148 359.968L90.8418 357.414L118.421 357.705Z" fill="black"/>
<path d="M124.183 359.789L85.3908 359.38C83.2275 359.357 81.287 358.047 80.4632 356.049L69.771 330.164L140.077 330.906L129.203 356.506C128.347 358.515 126.366 359.813 124.183 359.789Z" fill="black"/>
<path d="M137.335 322.541L72.6886 321.859C71.1261 321.842 69.8455 323.094 69.829 324.657L69.7709 330.166L140.075 330.908L140.133 325.399C140.15 323.836 138.898 322.558 137.335 322.541Z" fill="black"/>
<path d="M78.5691 346.237C78.1825 346.335 77.7765 346.14 77.6652 345.801L75.6636 339.789L73.6619 333.778C73.5486 333.44 73.7718 333.084 74.1583 332.987C74.5449 332.889 74.9489 333.084 75.0622 333.423L77.0639 339.435L79.0655 345.444C79.1768 345.784 78.9557 346.138 78.5691 346.237Z" fill="black"/>
<path d="M84.2165 346.3C83.8302 346.376 83.4469 346.163 83.3582 345.824L81.8036 339.813L80.2469 333.804C80.1602 333.465 80.3996 333.129 80.788 333.053C81.1744 332.977 81.5576 333.193 81.6463 333.532L83.201 339.537L84.7576 345.549C84.8463 345.889 84.6029 346.224 84.2165 346.3Z" fill="black"/>
<path d="M89.8612 346.364C89.475 346.417 89.1084 346.186 89.0463 345.847L87.9367 339.839L86.8291 333.833C86.767 333.494 87.0309 333.172 87.417 333.119C87.8051 333.066 88.1677 333.299 88.2318 333.636L89.3373 339.644L90.449 345.65C90.5111 345.989 90.2473 346.311 89.8612 346.364Z" fill="black"/>
<path d="M95.5087 346.411C95.1228 346.444 94.7788 346.194 94.7414 345.856L94.0788 339.85L93.4163 333.843C93.3788 333.504 93.6609 333.203 94.0488 333.173C94.4347 333.14 94.7786 333.39 94.8161 333.728L95.4787 339.734L96.1413 345.739C96.1787 346.078 95.8618 346.571 95.5087 346.411Z" fill="black"/>
<path d="M101.154 346.487C100.768 346.498 100.445 346.232 100.434 345.893L100.214 339.888L100.001 333.884C99.9879 333.545 100.292 333.261 100.678 333.251C101.066 333.243 101.389 333.511 101.402 333.849L101.617 339.854L101.833 345.859C101.846 346.197 101.539 346.477 101.154 346.487Z" fill="black"/>
<path d="M106.801 346.549C106.415 346.537 106.109 346.252 106.123 345.914L106.352 339.912L106.584 333.908C106.595 333.568 106.922 333.306 107.308 333.319C107.695 333.331 107.998 333.615 107.984 333.953L107.754 339.958L107.523 345.96C107.509 346.3 107.186 346.561 106.801 346.549Z" fill="black"/>
<path d="M112.448 346.613C112.062 346.578 111.776 346.277 111.815 345.939L112.491 339.936L113.17 333.932C113.208 333.594 113.549 333.348 113.937 333.383C114.324 333.417 114.608 333.72 114.569 334.058L113.893 340.061L113.214 346.065C113.176 346.403 112.835 346.647 112.448 346.613Z" fill="black"/>
<path d="M118.091 346.676C117.706 346.621 117.443 346.3 117.506 345.963L118.629 339.962L119.751 333.961C119.814 333.623 120.181 333.393 120.568 333.45C120.955 333.506 121.216 333.826 121.153 334.166L120.03 340.165L118.908 346.166C118.845 346.506 118.478 346.734 118.091 346.676Z" fill="black"/>
<path d="M123.738 346.74C123.351 346.662 123.109 346.323 123.198 345.986L124.767 339.987L126.338 333.987C126.427 333.65 126.811 333.438 127.198 333.516C127.585 333.596 127.825 333.933 127.737 334.271L126.167 340.271L124.6 346.269C124.511 346.609 124.123 346.818 123.738 346.74Z" fill="black"/>
<path d="M129.383 346.804C128.996 346.703 128.775 346.346 128.889 346.009L130.905 340.011L132.922 334.014C133.034 333.676 133.438 333.482 133.825 333.584C134.211 333.685 134.431 334.04 134.319 334.379L132.303 340.377L130.29 346.372C130.178 346.712 129.77 346.904 129.383 346.804Z" fill="black"/>
<path d="M107.927 403.836L100.36 403.756L100.535 387.25L108.101 387.329L107.927 403.836Z" fill="black"/>
<path d="M107.927 403.836L100.361 403.756L100.507 389.895L108.074 389.975L107.927 403.836Z" fill="black"/>
<path d="M107.927 403.836L100.361 403.756L100.438 396.383L108.005 396.463L107.927 403.836Z" fill="black"/>
<path d="M117.518 443.291L117.433 451.391C117.289 455.286 114.098 458.39 110.181 458.348L96.9761 458.209C93.0596 458.168 89.9144 454.997 89.8735 451.1L89.853 451.1L89.9385 443L117.518 443.291Z" fill="black"/>
<path d="M117.456 449.164L89.8766 448.873L89.8931 447.315L117.473 447.606L117.456 449.164Z" fill="black"/>
</g>
<path d="M119.819 353.045L119.271 444.707C119.146 448.602 115.969 451.721 112.052 451.697L98.8465 451.618C94.9299 451.595 91.7702 448.439 91.7114 444.542L91.6909 444.542L92.2383 352.88L119.819 353.045Z" fill="#5F5F5F"/>
<path d="M119.831 351.017L119.816 353.572C119.804 355.469 118.259 356.995 116.363 356.984L95.6474 356.86C93.7506 356.849 92.2239 355.304 92.2352 353.407L92.2505 350.852L119.831 351.017Z" fill="#373737"/>
<path d="M125.601 353.075L86.8082 352.844C84.6448 352.831 82.6983 351.529 81.8654 349.535L71.0547 323.7L141.364 324.12L130.606 349.769C129.76 351.781 127.785 353.088 125.601 353.075Z" fill="#5F5F5F"/>
<path d="M138.584 315.767L73.9343 315.381C72.3718 315.372 71.0969 316.629 71.0876 318.192L71.0547 323.702L141.362 324.122L141.394 318.612C141.404 317.049 140.146 315.776 138.584 315.767Z" fill="#FFDFBF"/>
<path d="M79.9268 339.732C79.5407 339.832 79.1337 339.639 79.0209 339.3L76.9917 333.297L74.9625 327.295C74.8477 326.958 75.0692 326.601 75.4553 326.503C75.8415 326.402 76.2463 326.595 76.3612 326.935L78.3904 332.937L80.4196 338.937C80.5324 339.276 80.3129 339.631 79.9268 339.732Z" fill="#373737"/>
<path d="M85.5741 339.769C85.1882 339.847 84.8039 339.636 84.7136 339.297L83.1315 333.293L81.5473 327.292C81.4591 326.953 81.6969 326.616 82.085 326.538C82.471 326.46 82.8552 326.674 82.9455 327.013L84.5277 333.01L86.1118 339.016C86.2021 339.355 85.9601 339.692 85.5741 339.769Z" fill="#373737"/>
<path d="M91.2192 339.807C90.8334 339.862 90.4656 339.632 90.402 339.294L89.2649 333.291L88.1298 327.29C88.0662 326.951 88.3286 326.629 88.7144 326.574C89.1023 326.518 89.466 326.75 89.5316 327.087L90.6647 333.09L91.8039 339.091C91.8674 339.43 91.6051 339.752 91.2192 339.807Z" fill="#373737"/>
<path d="M96.8667 339.829C96.481 339.863 96.1359 339.615 96.0969 339.276L95.4068 333.274L94.7167 327.27C94.6777 326.931 94.9584 326.629 95.3462 326.597C95.7319 326.562 96.077 326.81 96.116 327.149L96.8061 333.151L97.4962 339.154C97.5352 339.492 97.2205 339.987 96.8667 339.829Z" fill="#373737"/>
<path d="M102.512 339.879C102.126 339.891 101.801 339.626 101.789 339.288L101.542 333.284L101.301 327.28C101.287 326.942 101.59 326.657 101.975 326.645C102.363 326.635 102.687 326.901 102.702 327.239L102.945 333.243L103.188 339.247C103.202 339.585 102.897 339.867 102.512 339.879Z" fill="#373737"/>
<path d="M108.159 339.914C107.773 339.904 107.465 339.621 107.478 339.283L107.68 333.28L107.884 327.274C107.894 326.934 108.219 326.672 108.605 326.682C108.992 326.693 109.296 326.975 109.284 327.314L109.082 333.319L108.878 339.322C108.866 339.662 108.544 339.925 108.159 339.914Z" fill="#373737"/>
<path d="M113.806 339.952C113.421 339.919 113.134 339.62 113.17 339.282L113.819 333.275L114.47 327.269C114.507 326.931 114.847 326.682 115.235 326.716C115.622 326.749 115.907 327.05 115.87 327.388L115.221 333.394L114.57 339.401C114.533 339.739 114.194 339.985 113.806 339.952Z" fill="#373737"/>
<path d="M119.449 339.99C119.064 339.936 118.8 339.617 118.861 339.279L119.957 333.273L121.051 327.267C121.113 326.929 121.479 326.697 121.866 326.753C122.254 326.807 122.516 327.126 122.455 327.466L121.359 333.47L120.265 339.476C120.203 339.816 119.837 340.046 119.449 339.99Z" fill="#373737"/>
<path d="M125.097 340.028C124.71 339.952 124.466 339.614 124.554 339.276L126.095 333.271L127.638 327.263C127.726 326.925 128.109 326.712 128.496 326.789C128.883 326.867 129.125 327.202 129.039 327.54L127.496 333.548L125.957 339.553C125.869 339.893 125.482 340.104 125.097 340.028Z" fill="#373737"/>
<path d="M130.742 340.066C130.355 339.967 130.132 339.611 130.245 339.273L132.233 333.266L134.223 327.26C134.334 326.922 134.737 326.725 135.124 326.826C135.511 326.925 135.732 327.279 135.621 327.619L133.633 333.625L131.647 339.63C131.536 339.97 131.129 340.164 130.742 340.066Z" fill="#373737"/>
<path d="M119.319 436.607L119.271 444.707C119.145 448.602 115.969 451.721 112.052 451.697L98.846 451.618C94.9294 451.595 91.7697 448.439 91.7109 444.542L91.6904 444.542L91.7388 436.442L119.319 436.607Z" fill="#FFDFBF"/>
<path d="M119.285 442.48L91.7041 442.315L91.7134 440.757L119.294 440.921L119.285 442.48Z" fill="#5F5F5F"/>
<path d="M106.16 406.121L113.967 406.168L114.069 389.135L106.261 389.088L106.16 406.121Z" fill="#FFDFBF"/>
<path d="M106.16 406.121L113.967 406.168L114.053 391.864L106.245 391.818L106.16 406.121Z" fill="#EAA139"/>
<path d="M106.16 406.124L113.967 406.17L114.013 398.561L106.205 398.515L106.16 406.124Z" fill="#FFDFBF"/>
<path d="M110.398 381.894C110.896 381.897 111.297 382.303 111.294 382.8C111.291 383.297 110.885 383.698 110.388 383.695C109.89 383.693 109.489 383.286 109.492 382.789C109.495 382.292 109.901 381.891 110.398 381.894Z" fill="#FF0000"/>
<path d="M175.402 122.587C175.068 122.44 174.786 122.208 174.556 121.891C174.327 121.575 174.152 121.172 174.034 120.681C173.916 120.19 173.857 119.6 173.857 118.911C173.857 117.609 174.121 116.607 174.651 115.904C175.18 115.202 175.938 114.85 176.926 114.85C177.42 114.85 177.871 114.943 178.277 115.127C178.684 115.311 179.059 115.633 179.4 116.092V121.209C179.017 121.717 178.598 122.109 178.142 122.388C177.687 122.666 177.156 122.805 176.551 122.805C176.12 122.805 175.736 122.733 175.402 122.587ZM181.258 124.162V108.786H179.4V114.652C179.038 114.255 178.627 113.947 178.168 113.728C177.709 113.509 177.156 113.4 176.509 113.4C175.792 113.4 175.152 113.54 174.588 113.823C174.024 114.104 173.545 114.492 173.152 114.986C172.759 115.479 172.458 116.063 172.25 116.734C172.041 117.406 171.937 118.131 171.937 118.911C171.937 119.788 172.03 120.564 172.218 121.239C172.406 121.915 172.675 122.479 173.022 122.931C173.37 123.382 173.791 123.725 174.285 123.958C174.778 124.192 175.329 124.308 175.934 124.308C176.686 124.308 177.353 124.143 177.934 123.812C178.514 123.482 179.032 123.042 179.484 122.492L179.651 123.775C179.721 124.033 179.888 124.162 180.152 124.162H181.258Z" fill="black"/>
<path d="M161.017 124.162V116.375C161.421 115.923 161.861 115.564 162.337 115.3C162.814 115.036 163.327 114.903 163.877 114.903C164.629 114.903 165.186 115.123 165.552 115.565C165.918 116.007 166.1 116.628 166.1 117.428V124.162H167.958V117.428C167.958 116.83 167.882 116.284 167.729 115.79C167.575 115.296 167.352 114.873 167.056 114.521C166.76 114.17 166.391 113.899 165.949 113.707C165.507 113.516 164.997 113.421 164.42 113.421C163.676 113.421 163.019 113.577 162.451 113.89C161.884 114.203 161.372 114.613 160.912 115.122L160.766 113.974C160.696 113.716 160.529 113.588 160.265 113.588H159.159V124.162H161.017Z" fill="black"/>
<path d="M145.358 113.588V120.332C145.358 120.93 145.432 121.476 145.582 121.97C145.732 122.464 145.957 122.886 146.256 123.234C146.556 123.581 146.926 123.85 147.368 124.042C147.81 124.234 148.319 124.329 148.897 124.329C149.635 124.329 150.288 124.175 150.859 123.865C151.43 123.556 151.945 123.147 152.404 122.638L152.55 123.775C152.62 124.033 152.787 124.162 153.052 124.162H154.158V113.588H152.3V121.386C151.896 121.845 151.455 122.202 150.975 122.46C150.495 122.718 149.982 122.847 149.44 122.847C148.695 122.847 148.138 122.628 147.769 122.19C147.401 121.752 147.217 121.133 147.217 120.332V113.588H145.358Z" fill="black"/>
<path d="M134.96 122.587C134.571 122.406 134.244 122.146 133.984 121.808C133.724 121.47 133.528 121.054 133.399 120.56C133.27 120.066 133.206 119.506 133.206 118.88C133.206 118.254 133.27 117.691 133.399 117.194C133.528 116.696 133.724 116.278 133.984 115.936C134.244 115.595 134.571 115.333 134.96 115.153C135.35 114.972 135.809 114.882 136.338 114.882C137.382 114.882 138.162 115.234 138.677 115.936C139.191 116.639 139.449 117.62 139.449 118.88C139.449 120.133 139.191 121.109 138.677 121.808C138.162 122.508 137.382 122.858 136.338 122.858C135.809 122.858 135.35 122.767 134.96 122.587ZM134.244 113.807C133.622 114.065 133.091 114.43 132.653 114.903C132.214 115.376 131.878 115.948 131.641 116.62C131.404 117.292 131.286 118.041 131.286 118.869C131.286 119.704 131.404 120.456 131.641 121.124C131.878 121.792 132.214 122.363 132.653 122.836C133.091 123.309 133.622 123.674 134.244 123.928C134.867 124.182 135.566 124.309 136.338 124.309C137.111 124.309 137.808 124.182 138.431 123.928C139.054 123.674 139.583 123.309 140.018 122.836C140.453 122.363 140.787 121.792 141.02 121.124C141.253 120.456 141.37 119.704 141.37 118.869C141.37 118.041 141.253 117.292 141.02 116.62C140.787 115.948 140.453 115.376 140.018 114.903C139.583 114.43 139.054 114.065 138.431 113.807C137.808 113.549 137.111 113.421 136.338 113.421C135.566 113.421 134.867 113.549 134.244 113.807Z" fill="black"/>
<path d="M119.321 109.202V124.162H121.358V117.732H127.496V116.082H121.358V110.853H128.54V109.202H119.321Z" fill="black"/>
<path d="M107.933 124.074C108.385 123.903 108.771 123.669 109.092 123.369L108.549 122.482C108.473 122.364 108.385 122.304 108.288 122.304C108.232 122.304 108.167 122.33 108.095 122.383C108.021 122.434 107.933 122.492 107.828 122.555C107.724 122.617 107.601 122.675 107.458 122.727C107.316 122.779 107.147 122.805 106.951 122.805C106.61 122.805 106.332 122.698 106.116 122.482C105.9 122.266 105.793 121.936 105.793 121.49V115.143H108.821V113.797H105.793V110.153H104.854C104.736 110.153 104.637 110.186 104.561 110.252C104.485 110.319 104.438 110.403 104.425 110.508L103.998 113.776L102.265 113.994V114.736C102.265 114.875 102.303 114.977 102.379 115.043C102.455 115.11 102.55 115.143 102.661 115.143H103.935V121.615C103.935 122.492 104.16 123.164 104.608 123.631C105.056 124.097 105.699 124.329 106.534 124.329C107.014 124.329 107.481 124.245 107.933 124.074Z" fill="black"/>
<path d="M92.6815 122.587C92.2921 122.406 91.9655 122.146 91.7051 121.808C91.4447 121.47 91.2494 121.054 91.1205 120.56C90.9915 120.066 90.9277 119.506 90.9277 118.88C90.9277 118.254 90.9915 117.691 91.1205 117.194C91.2494 116.696 91.4447 116.278 91.7051 115.936C91.9655 115.595 92.2921 115.333 92.6815 115.153C93.0708 114.972 93.5301 114.882 94.0594 114.882C95.1034 114.882 95.8833 115.234 96.3978 115.936C96.9124 116.639 97.1704 117.62 97.1704 118.88C97.1704 120.133 96.9124 121.109 96.3978 121.808C95.8833 122.508 95.1034 122.858 94.0594 122.858C93.5301 122.858 93.0708 122.767 92.6815 122.587ZM91.9667 113.807C91.344 114.065 90.8122 114.43 90.3738 114.903C89.9353 115.376 89.5988 115.948 89.3618 116.62C89.1247 117.292 89.0068 118.041 89.0068 118.869C89.0068 119.704 89.1247 120.456 89.3618 121.124C89.5988 121.792 89.9353 122.363 90.3738 122.836C90.8122 123.309 91.344 123.674 91.9667 123.928C92.5894 124.182 93.2869 124.309 94.0594 124.309C94.832 124.309 95.5295 124.182 96.1522 123.928C96.7749 123.674 97.3042 123.309 97.739 122.836C98.1738 122.363 98.5078 121.792 98.7412 121.124C98.9745 120.456 99.0912 119.704 99.0912 118.869C99.0912 118.041 98.9745 117.292 98.7412 116.62C98.5078 115.948 98.1738 115.376 97.739 114.903C97.3042 114.43 96.7749 114.065 96.1522 113.807C95.5295 113.549 94.832 113.421 94.0594 113.421C93.2869 113.421 92.5894 113.549 91.9667 113.807Z" fill="black"/>
<path d="M73.3896 109.202H72.3457V124.162H74.1204V113.503C74.1204 113.364 74.1167 113.212 74.1093 113.045C74.102 112.878 74.0921 112.707 74.0786 112.533L82.7322 123.798C82.8366 123.93 82.9434 124.024 83.0515 124.079C83.1596 124.134 83.2934 124.162 83.4531 124.162H84.4761V109.202H82.7015V119.799C82.7015 119.958 82.7039 120.124 82.7113 120.295C82.7187 120.466 82.7322 120.641 82.7531 120.822L74.0884 109.547C73.9767 109.409 73.8784 109.316 73.7912 109.271C73.704 109.226 73.5702 109.202 73.3896 109.202Z" fill="black"/>
<path d="M58.5607 115.002C58.8911 115.144 59.1711 115.347 59.4008 115.607C59.6305 115.869 59.8049 116.178 59.9228 116.537C60.0407 116.895 60.1008 117.291 60.1008 117.722H54.3482C54.4735 116.803 54.794 116.084 55.3086 115.565C55.8232 115.047 56.5306 114.788 57.4284 114.788C57.8533 114.788 58.2304 114.859 58.5607 115.002ZM55.3197 113.823C54.7068 114.09 54.1885 114.46 53.7636 114.929C53.3386 115.4 53.0132 115.955 52.7872 116.595C52.5612 117.234 52.4482 117.923 52.4482 118.661C52.4482 119.573 52.5735 120.381 52.8241 121.083C53.0746 121.786 53.4246 122.375 53.8729 122.852C54.3212 123.328 54.8554 123.691 55.4707 123.938C56.0873 124.184 56.7603 124.309 57.491 124.309C57.8742 124.309 58.2599 124.275 58.6492 124.209C59.0385 124.143 59.4155 124.044 59.7815 123.912C60.1475 123.779 60.4902 123.611 60.8107 123.406C61.1313 123.201 61.4051 122.959 61.6348 122.68L61.1128 122.002C61.0293 121.884 60.9114 121.824 60.7579 121.824C60.64 121.824 60.4988 121.878 60.3354 121.986C60.1721 122.094 59.9682 122.211 59.725 122.336C59.4819 122.461 59.1908 122.577 58.853 122.685C58.5153 122.793 58.1137 122.847 57.647 122.847C57.1459 122.847 56.694 122.765 56.2899 122.601C55.8858 122.438 55.5383 122.191 55.246 121.861C54.9537 121.53 54.724 121.118 54.557 120.624C54.39 120.13 54.2991 119.548 54.2856 118.88H61.3216C61.496 118.88 61.6139 118.831 61.6766 118.734C61.7392 118.637 61.7711 118.442 61.7711 118.149C61.7711 117.398 61.6606 116.728 61.442 116.14C61.2222 115.552 60.9176 115.058 60.5282 114.658C60.1389 114.257 59.6759 113.952 59.1404 113.739C58.605 113.527 58.0204 113.421 57.3866 113.421C56.6215 113.421 55.9325 113.555 55.3197 113.823Z" fill="black"/>
<path d="M43.1682 118.838C42.8833 118.734 42.6426 118.588 42.4473 118.4C42.252 118.212 42.1046 117.988 42.0039 117.727C41.9032 117.466 41.8529 117.178 41.8529 116.865C41.8529 116.217 42.0494 115.704 42.4424 115.321C42.8354 114.938 43.4052 114.746 44.1495 114.746C44.9011 114.746 45.4734 114.938 45.8664 115.321C46.2595 115.704 46.456 116.217 46.456 116.865C46.456 117.178 46.4068 117.466 46.3098 117.727C46.2128 117.988 46.0666 118.212 45.8714 118.4C45.6761 118.588 45.4354 118.734 45.1468 118.838C44.8581 118.943 44.5253 118.996 44.1495 118.996C43.7811 118.996 43.4531 118.943 43.1682 118.838ZM47.2285 125.476C47.0823 125.711 46.8723 125.912 46.5972 126.083C46.3221 126.254 45.9868 126.385 45.5901 126.477C45.1934 126.57 44.7439 126.616 44.2428 126.616C43.7282 126.616 43.2812 126.572 42.9017 126.485C42.5222 126.398 42.2078 126.28 41.9572 126.13C41.7067 125.98 41.52 125.801 41.3984 125.596C41.2768 125.391 41.2154 125.169 41.2154 124.932C41.2154 124.555 41.3395 124.231 41.5863 123.96C41.8332 123.688 42.155 123.457 42.5517 123.27C42.8931 123.364 43.2517 123.411 43.6275 123.411C44.0033 123.411 44.3718 123.411 44.7341 123.411C45.0964 123.411 45.4403 123.432 45.767 123.475C46.0937 123.518 46.3835 123.583 46.634 123.671C46.8846 123.76 47.0823 123.886 47.2285 124.049C47.3746 124.213 47.4483 124.429 47.4483 124.699C47.4483 124.983 47.3746 125.242 47.2285 125.476ZM42.5369 113.649C42.0457 113.809 41.6232 114.037 41.2683 114.333C40.9133 114.629 40.6358 114.988 40.438 115.409C40.2403 115.831 40.1408 116.299 40.1408 116.813C40.1408 117.46 40.2882 118.025 40.5842 118.509C40.8802 118.993 41.2891 119.381 41.8111 119.673C41.5888 119.785 41.3935 119.913 41.2265 120.059C41.0595 120.205 40.9195 120.358 40.804 120.517C40.6898 120.677 40.6026 120.839 40.5473 121.002C40.4921 121.166 40.4638 121.324 40.4638 121.476C40.4638 121.866 40.5522 122.176 40.7303 122.41C40.9084 122.643 41.1454 122.829 41.4451 122.967C40.8679 123.184 40.4135 123.473 40.0831 123.839C39.7527 124.205 39.5869 124.649 39.5869 125.172C39.5869 125.542 39.6827 125.895 39.8743 126.233C40.0659 126.571 40.3521 126.868 40.7352 127.126C41.1184 127.384 41.6011 127.589 42.182 127.742C42.7629 127.896 43.4396 127.973 44.2121 127.973C44.9846 127.973 45.6761 127.871 46.2889 127.671C46.9018 127.47 47.4201 127.202 47.845 126.868C48.2699 126.533 48.5954 126.152 48.8214 125.722C49.0474 125.292 49.1603 124.849 49.1603 124.391C49.1603 123.898 49.0584 123.495 48.857 123.186C48.6556 122.877 48.3878 122.632 48.0538 122.456C47.7197 122.281 47.3402 122.153 46.9153 122.076C46.4903 121.998 46.058 121.96 45.6159 121.96C45.1738 121.96 44.7415 121.96 44.3165 121.96C43.8916 121.96 43.5121 121.931 43.178 121.873C42.844 121.815 42.5762 121.72 42.3748 121.587C42.1734 121.454 42.0715 121.258 42.0715 120.999C42.0715 120.84 42.1292 120.679 42.2446 120.514C42.3601 120.348 42.5283 120.193 42.7506 120.049C43.1891 120.167 43.6558 120.226 44.1495 120.226C44.7267 120.226 45.2573 120.146 45.7412 119.987C46.2251 119.827 46.6426 119.597 46.9939 119.298C47.3451 118.998 47.6215 118.638 47.8192 118.217C48.0169 117.796 48.1164 117.328 48.1164 116.813C48.1164 116.257 47.9985 115.752 47.7615 115.3L48.9614 115.133C49.2537 115.07 49.3998 114.924 49.3998 114.695V114.006H46.5297C46.203 113.81 45.8394 113.662 45.4391 113.561C45.0387 113.46 44.6088 113.41 44.1495 113.41C43.5649 113.41 43.027 113.49 42.5369 113.649Z" fill="black"/>
<path d="M30.3284 122.935C30.1196 122.876 29.9391 122.781 29.7856 122.652C29.6321 122.523 29.5117 122.356 29.4208 122.153C29.3299 121.95 29.2845 121.709 29.2845 121.429C29.2845 121.135 29.3692 120.868 29.54 120.63C29.7107 120.392 29.9845 120.187 30.3604 120.011C30.7362 119.837 31.2238 119.694 31.8219 119.586C32.42 119.478 33.147 119.423 34.0031 119.423V121.605C33.7943 121.828 33.5793 122.025 33.3607 122.2C33.1421 122.374 32.9125 122.522 32.6717 122.643C32.4323 122.765 32.1768 122.859 31.9054 122.926C31.634 122.992 31.3343 123.024 31.0076 123.024C30.7644 123.024 30.5372 122.994 30.3284 122.935ZM35.8305 117.398C35.8305 116.806 35.7495 116.263 35.5898 115.769C35.4302 115.275 35.1931 114.854 34.88 114.507C34.5668 114.159 34.1811 113.886 33.7218 113.691C33.2625 113.496 32.7368 113.4 32.1449 113.4C31.3232 113.4 30.5765 113.539 29.901 113.818C29.2256 114.096 28.5955 114.516 28.0109 115.08L28.345 115.676C28.4002 115.773 28.4764 115.854 28.5697 115.92C28.6643 115.987 28.7736 116.02 28.8989 116.02C29.0585 116.02 29.2206 115.963 29.384 115.848C29.5473 115.734 29.7426 115.603 29.9686 115.461C30.1946 115.318 30.4623 115.191 30.7718 115.075C31.0813 114.961 31.4632 114.903 31.9152 114.903C32.6042 114.903 33.1249 115.115 33.4762 115.538C33.8274 115.962 34.0031 116.587 34.0031 117.414V118.244C32.8056 118.244 31.7936 118.34 30.9658 118.531C30.1381 118.723 29.4675 118.969 28.9554 119.269C28.4444 119.57 28.0735 119.914 27.8439 120.302C27.6142 120.69 27.5 121.093 27.5 121.512C27.5 121.993 27.5774 122.411 27.7346 122.764C27.8918 123.116 28.1018 123.407 28.3658 123.638C28.6299 123.869 28.9418 124.041 29.3005 124.156C29.6591 124.272 30.0435 124.329 30.4537 124.329C30.8578 124.329 31.225 124.295 31.5554 124.225C31.8857 124.155 32.1977 124.052 32.49 123.917C32.7823 123.78 33.0611 123.613 33.3251 123.416C33.5892 123.218 33.8606 122.993 34.1394 122.743L34.3482 123.724C34.3826 123.904 34.455 124.024 34.5668 124.079C34.6785 124.134 34.8247 124.162 35.0052 124.162H35.8305V117.398Z" fill="black"/>
<path d="M16.4024 110.8H18.8034C19.9935 110.8 20.8826 111.068 21.4709 111.603C22.0592 112.139 22.3527 112.884 22.3527 113.837C22.3527 114.297 22.2766 114.718 22.1231 115.101C21.9696 115.484 21.7448 115.812 21.4451 116.087C21.1455 116.362 20.7746 116.576 20.3324 116.73C19.8903 116.883 19.3806 116.959 18.8034 116.959H16.4024V110.8ZM18.8034 118.567C19.7012 118.567 20.4982 118.45 21.1946 118.217C21.891 117.984 22.4719 117.658 22.9423 117.241C23.4114 116.823 23.77 116.326 24.0132 115.748C24.2564 115.171 24.378 114.534 24.378 113.837C24.378 113.135 24.265 112.499 24.039 111.928C23.813 111.356 23.4704 110.87 23.011 110.466C22.5517 110.062 21.9708 109.751 21.272 109.531C20.5719 109.313 19.7503 109.202 18.8034 109.202H14.3882V124.162H16.4024V118.567H18.8034Z" fill="black"/>
<path d="M142.443 66.0696H142.563V81.4154H133.536L142.443 66.0696ZM121.861 87.5242C122.022 87.986 122.291 88.406 122.673 88.7867C123.054 89.1687 123.555 89.4794 124.178 89.7201C124.799 89.9608 125.572 90.0812 126.495 90.0812H142.563V94.1734C142.563 95.8989 142.984 97.2118 143.827 98.1145C144.669 99.0172 145.813 99.4692 147.257 99.4692C148.701 99.4692 149.845 99.0172 150.687 98.1145C151.53 97.2118 151.951 95.8584 151.951 94.053V90.0812H153.997C155.521 90.0812 156.725 89.741 157.608 89.0581C158.49 88.3765 158.932 87.2736 158.932 85.7483C158.932 84.2241 158.49 83.1213 157.608 82.4384C156.725 81.7568 155.521 81.4154 153.997 81.4154H151.951V63.2412C151.951 61.0747 151.309 59.3099 150.025 57.9454C148.741 56.5821 146.976 55.8993 144.729 55.8993C143.204 55.8993 141.89 56.1314 140.787 56.592C139.683 57.0538 138.691 57.9663 137.809 59.3295L123.486 81.4755C123.125 82.038 122.723 82.7393 122.283 83.5818C121.842 84.4243 121.621 85.3074 121.621 86.2297C121.621 86.6313 121.702 87.0636 121.861 87.5242Z" fill="black"/>
<path d="M90.1465 73.4115C90.3872 71.8874 90.8085 70.4725 91.4103 69.1682C92.0121 67.8652 92.8141 66.7918 93.8175 65.9492C94.8196 65.1067 96.0834 64.6855 97.6088 64.6855C99.1329 64.6855 100.397 65.1067 101.4 65.9492C102.402 66.7918 103.205 67.8652 103.807 69.1682C104.409 70.4725 104.83 71.8874 105.071 73.4115C105.312 74.9368 105.432 76.3603 105.432 77.6842C105.432 79.0082 105.312 80.4328 105.071 81.957C104.83 83.4823 104.409 84.8972 103.807 86.2002C103.205 87.5045 102.402 88.5767 101.4 89.4192C100.397 90.2617 99.1329 90.683 97.6088 90.683C96.0834 90.683 94.8196 90.2617 93.8175 89.4192C92.8141 88.5767 92.0121 87.5045 91.4103 86.2002C90.8085 84.8972 90.3872 83.4823 90.1465 81.957C89.9058 80.4328 89.7854 79.0082 89.7854 77.6842C89.7854 76.3603 89.9058 74.9368 90.1465 73.4115ZM89.6049 57.2232C87.3574 58.5079 85.4918 60.1929 84.0082 62.2783C82.5234 64.3649 81.4303 66.7525 80.729 69.4396C80.0265 72.1281 79.6753 74.8767 79.6753 77.6842C79.6753 80.493 80.0265 83.2416 80.729 85.9288C81.4303 88.6172 82.5234 91.0047 84.0082 93.0901C85.4918 95.1768 87.3574 96.8618 89.6049 98.1452C91.8512 99.4286 94.5187 100.071 97.6088 100.071C100.698 100.071 103.365 99.4286 105.613 98.1452C107.859 96.8618 109.724 95.1768 111.209 93.0901C112.693 91.0047 113.787 88.6172 114.49 85.9288C115.191 83.2416 115.542 80.493 115.542 77.6842C115.542 74.8767 115.191 72.1281 114.49 69.4396C113.787 66.7525 112.693 64.3649 111.209 62.2783C109.724 60.1929 107.859 58.5079 105.613 57.2232C103.365 55.9398 100.698 55.2975 97.6088 55.2975C94.5187 55.2975 91.8512 55.9398 89.6049 57.2232Z" fill="black"/>
<path d="M56.5677 66.0696H56.688V81.4154H47.6611L56.5677 66.0696ZM35.9863 87.5242C36.1472 87.986 36.4162 88.406 36.7981 88.7867C37.1789 89.1687 37.6799 89.4794 38.3026 89.7201C38.9241 89.9608 39.6966 90.0812 40.6201 90.0812H56.688V94.1734C56.688 95.8989 57.1093 97.2118 57.9518 98.1145C58.7943 99.0172 59.9377 99.4692 61.382 99.4692C62.8263 99.4692 63.9697 99.0172 64.8122 98.1145C65.6548 97.2118 66.076 95.8584 66.076 94.053V90.0812H68.1221C69.6463 90.0812 70.8498 89.741 71.7329 89.0581C72.6147 88.3765 73.0568 87.2736 73.0568 85.7483C73.0568 84.2241 72.6147 83.1213 71.7329 82.4384C70.8498 81.7568 69.6463 81.4154 68.1221 81.4154H66.076V63.2412C66.076 61.0747 65.4337 59.3099 64.1503 57.9454C62.8656 56.5821 61.1008 55.8993 58.8545 55.8993C57.3291 55.8993 56.015 56.1314 54.9121 56.592C53.808 57.0538 52.8157 57.9663 51.9339 59.3295L37.6112 81.4755C37.2501 82.038 36.8485 82.7393 36.4076 83.5818C35.9667 84.4243 35.7456 85.3074 35.7456 86.2297C35.7456 86.6313 35.8267 87.0636 35.9863 87.5242Z" fill="black"/>
</svg>
