<svg width="212" height="212" viewBox="0 0 212 212" fill="none" xmlns="http://www.w3.org/2000/svg">
<path d="M92.7734 44.0543C92.7629 44.0356 92.7536 44.0163 92.7456 43.9965L92.7584 43.9836C92.7651 44.0068 92.7701 44.0304 92.7734 44.0543Z" fill="#71DDB1"/>
<path d="M92.8241 44.308C92.8044 44.2386 92.7902 44.1677 92.7817 44.096C92.8162 44.161 92.831 44.2347 92.8241 44.308Z" fill="#71DDB1"/>
<path d="M102.347 117.306C102.294 117.427 102.25 117.546 102.197 117.671C98.2833 127.2 95.5527 138.601 94.9189 152.246C84.0539 125.631 66.0296 112.748 49.9749 106.562C50.2632 97.6684 51.4991 82.203 56.5469 72.7012C56.5469 72.7012 65.0947 74.7003 75.8537 83.1295C84.3422 89.7799 94.2192 100.446 102.347 117.306Z" fill="#71DDB1"/>
<path d="M103.95 117.162L103.583 117.079C103.636 116.952 103.683 116.831 103.734 116.708C103.806 116.857 103.88 117.024 103.95 117.162Z" fill="#71DDB1"/>
<path d="M103.95 117.162L103.583 117.079C103.636 116.952 103.683 116.831 103.734 116.708C103.806 116.857 103.88 117.024 103.95 117.162Z" fill="#71DDB1"/>
<path d="M96.9242 178.252C96.8203 178.252 96.7122 178.252 96.6105 178.252C56.0718 178.252 22.491 147.531 16.4745 107.395C16.0695 103.969 16.0081 101.923 16.0081 101.923C16.0081 101.923 30.6361 100.439 47.5961 107.115C62.6375 113.036 79.5169 125.364 89.6908 150.83V150.849C89.7523 151.001 89.8137 151.152 89.8689 151.311C92.9089 159.017 95.33 167.919 96.9115 178.194C96.9179 178.214 96.9242 178.233 96.9242 178.252Z" fill="#71DDB1"/>
<path d="M191.292 103.153C187.419 148.612 150.541 184.306 105.576 184.489C105.601 182.424 106.248 159.089 120.333 137.934C126.629 128.387 135.087 120.459 145.021 114.794C145.303 114.631 145.576 114.476 145.869 114.321C146.214 114.124 146.568 113.935 146.929 113.746C147.02 113.693 147.117 113.645 147.217 113.592C147.563 113.409 147.908 113.227 148.262 113.051C148.444 112.958 148.627 112.862 148.818 112.776C149.195 112.581 149.581 112.39 149.967 112.207C150.352 112.025 150.692 111.864 151.058 111.696L151.188 111.635C151.463 111.506 151.737 111.385 152.017 111.264C152.364 111.101 152.71 110.952 153.062 110.804C154.088 110.359 155.146 109.935 156.225 109.532L156.598 109.39C157.054 109.214 157.512 109.046 157.976 108.883C167.304 105.576 178.317 103.475 191.292 103.153Z" fill="#71DDB1"/>
<path d="M130.094 82.0631C120.908 89.0209 110.56 99.9877 103.734 116.708C95.6121 99.5149 85.7625 88.6351 77.291 81.8532C82.2942 72.5252 93.6341 53.566 103.95 44.6981C103.95 44.6981 119.568 60.1253 130.094 82.0631Z" fill="#71DDB1"/>
<path d="M157.05 107.109C156.596 107.268 156.146 107.433 155.697 107.605L155.332 107.745C154.272 108.141 153.238 108.559 152.231 108.996C151.885 109.142 151.546 109.286 151.207 109.445C150.931 109.566 150.662 109.685 150.393 109.81L150.263 109.869C149.905 110.034 149.547 110.2 149.203 110.374C148.86 110.547 148.447 110.736 148.073 110.929C147.889 111.014 147.709 111.107 147.531 111.2C147.183 111.372 146.844 111.55 146.505 111.73C146.409 111.783 146.312 111.828 146.223 111.881C145.877 112.067 145.532 112.252 145.19 112.445C144.908 112.597 144.639 112.748 144.363 112.907C134.615 118.464 126.314 126.241 120.134 135.606C106.32 156.356 105.684 179.248 105.659 181.273L105.627 181.213C103.973 170.469 101.444 161.162 98.264 153.106L98.5142 152.286L98.0796 152.623C98.0796 152.623 98.0796 152.623 98.0796 152.61C98.7007 138.962 101.372 127.55 105.205 118.025L105.563 118.103L105.351 117.66C112.048 101.258 122.199 90.5007 131.215 83.6764C141.834 75.6416 150.887 73.0404 150.887 73.0404C155.716 79.0103 156.818 97.272 157.05 107.109Z" fill="#71DDB1"/>
<path d="M95.896 154.623V154.601C95.896 154.601 95.896 154.614 95.896 154.623Z" stroke="#CCDDE2" stroke-width="0.84164" stroke-miterlimit="10"/>
<path d="M103.732 116.916C103.676 117.045 103.628 117.172 103.573 117.308C99.4406 127.582 96.5596 139.888 95.8875 154.607C84.4183 125.896 65.3871 111.995 48.4292 105.324C48.7324 95.7286 50.0383 79.0463 55.3722 68.794C55.3722 68.794 64.397 70.95 75.7581 80.0448C84.7215 87.2189 95.1498 98.7263 103.732 116.916Z" stroke="#CCDDE2" stroke-width="0.84164" stroke-miterlimit="10"/>
<path d="M103.96 117.395L103.573 117.308C103.628 117.172 103.676 117.045 103.732 116.916C103.808 117.073 103.88 117.236 103.96 117.395Z" stroke="#CCDDE2" stroke-width="0.84164" stroke-miterlimit="10"/>
<path d="M95.896 154.623V154.601C95.896 154.601 95.896 154.614 95.896 154.623Z" stroke="#CCDDE2" stroke-width="0.84164" stroke-miterlimit="10"/>
<path d="M103.96 117.395L103.573 117.308C103.628 117.172 103.676 117.045 103.732 116.916C103.808 117.073 103.88 117.236 103.96 117.395Z" stroke="#CCDDE2" stroke-width="0.84164" stroke-miterlimit="10"/>
<path opacity="0.9" d="M33.8161 151.61C33.0677 150.696 32.3321 149.761 31.624 148.811C22.0923 136.13 15.8134 121.307 13.3369 105.637C12.72 101.798 12.8154 99.4704 12.8154 99.4704C12.8154 99.4704 29.2984 97.7999 48.4314 105.324C65.3914 111.997 84.4163 125.888 95.8876 154.607V154.631C95.9575 154.802 96.0296 154.974 96.0869 155.152C99.5213 163.844 102.248 173.876 104.033 185.468C104.033 185.489 104.033 185.511 104.033 185.534C103.912 185.534 103.797 185.534 103.676 185.534C80.0236 185.5 58.4526 176.066 42.188 160.654C40.492 159.049 38.8405 157.372 37.2632 155.636" stroke="#CCDDE2" stroke-width="0.84164" stroke-miterlimit="10"/>
<path d="M95.896 154.623V154.601C95.896 154.601 95.896 154.614 95.896 154.623Z" stroke="#CCDDE2" stroke-width="0.84164" stroke-miterlimit="10"/>
<path opacity="0.9" d="M194.747 99.4767C190.649 147.569 151.641 185.324 104.071 185.517C104.098 183.333 104.783 158.648 119.68 136.267C126.343 126.169 135.292 117.783 145.801 111.79C146.1 111.618 146.39 111.455 146.693 111.292C147.06 111.08 147.433 110.884 147.806 110.683C147.902 110.626 148.006 110.577 148.11 110.52C148.476 110.327 148.843 110.134 149.216 109.95C149.409 109.848 149.602 109.738 149.803 109.655C150.204 109.443 150.611 109.25 151.02 109.057C151.429 108.864 151.786 108.692 152.174 108.514L152.311 108.449C152.602 108.313 152.892 108.186 153.189 108.056C153.556 107.885 153.92 107.728 154.294 107.571C155.379 107.1 156.498 106.651 157.639 106.223L158.033 106.072C158.517 105.888 159 105.707 159.492 105.538C169.373 102.031 181.025 99.8181 194.747 99.4767Z" stroke="#CCDDE2" stroke-width="0.84164" stroke-miterlimit="10"/>
<path d="M131.616 80.2674C121.9 87.6259 110.952 99.2266 103.731 116.916C95.1497 98.7263 84.7214 87.2189 75.7581 80.0448C81.0581 70.172 93.0488 50.121 103.954 40.74C103.96 40.74 120.469 57.0598 131.616 80.2674Z" stroke="#CCDDE2" stroke-width="0.84164" stroke-miterlimit="10"/>
<path d="M40.1231 132.805C40.1253 132.791 40.1253 132.777 40.1231 132.763C40.1231 132.748 40.1231 132.733 40.1231 132.706C40.1198 132.682 40.1198 132.657 40.1231 132.634C40.1291 132.684 40.139 132.735 40.1528 132.784C40.1496 132.789 40.1453 132.794 40.1402 132.798C40.1351 132.801 40.1293 132.804 40.1231 132.805Z" fill="white"/>
<path d="M40.2015 146.511C39.8744 147.566 39.4566 148.591 38.9528 149.574C38.8087 149.852 38.6666 150.124 38.5098 150.395C37.9742 151.4 37.317 152.336 36.553 153.181C36.4173 153.136 36.2816 153.079 36.1608 153.03C36.1332 153.03 36.1099 153.009 36.0887 153C33.6189 151.923 31.7639 149.903 31.2127 147.633C30.7209 145.633 31.164 143.471 30.2142 141.595C29.044 139.284 25.8894 137.838 25.4951 135.226C25.1389 132.784 27.3374 130.543 26.9791 128.152C26.572 125.445 23.2458 123.84 22.631 121.198C22.2388 119.557 22.5886 117.664 22.4465 115.972C22.2824 114.082 21.9619 112.207 21.4883 110.369C21.7172 110.354 21.9462 110.348 22.1752 110.34C26.8392 110.261 31.4544 112.884 32.9681 116.579C34.1892 119.564 33.568 123.011 35.1877 125.809C35.2858 125.99 35.3956 126.164 35.5163 126.331C35.7288 126.626 35.9574 126.909 36.2011 127.179L36.7162 127.715C36.801 127.8 36.8943 127.878 36.9791 127.972C37.0639 128.065 37.1572 128.143 37.2441 128.237C38.0497 129.006 38.8723 129.784 39.4065 130.706C39.4559 130.786 39.4991 130.87 39.5358 130.957C39.5858 131.04 39.6284 131.128 39.663 131.22C39.7091 131.313 39.7502 131.408 39.786 131.506C39.8284 131.612 39.8644 131.718 39.8984 131.834C39.9492 132.006 40.0001 132.169 40.034 132.341C40.034 132.383 40.034 132.419 40.0489 132.455C40.0637 132.492 40.0489 132.483 40.0489 132.498C40.052 132.512 40.052 132.526 40.0489 132.54C40.052 132.565 40.0569 132.589 40.0637 132.612V132.627C40.0645 132.654 40.0688 132.68 40.0764 132.706C40.0764 132.733 40.0764 132.748 40.0764 132.763C40.0786 132.777 40.0786 132.791 40.0764 132.805V132.82L39.5274 140.787C39.8793 142.714 40.7591 144.635 40.2015 146.511Z" fill="white"/>
<path d="M44.3481 127.172C44.7064 125.445 44.734 123.632 45.5481 121.983C47.0617 118.943 51.4841 116.736 56.1205 116.594H56.2053C56.6293 116.594 57.0533 116.594 57.4773 116.615C56.9976 118.195 56.6704 119.818 56.5 121.461C56.3431 122.924 56.712 124.561 56.3071 125.966C55.6562 128.249 52.1943 129.636 51.7745 131.97C51.4014 134.039 53.6931 135.975 53.3157 138.08C52.9087 140.336 49.6248 141.584 48.4122 143.592C47.4327 145.214 47.8907 147.075 47.384 148.796C46.7904 150.76 44.84 152.509 42.2727 153.429C42.1073 153.486 41.9589 153.543 41.7935 153.594C41.7066 153.615 41.607 153.651 41.5222 153.672C41.4925 153.651 41.4649 153.622 41.4289 153.594C40.6 152.888 39.6714 151.697 38.9019 150.414L38.9591 149.6C39.4628 148.617 39.8806 147.592 40.2078 146.537C40.7653 144.66 39.8855 142.74 39.5718 140.813L40.1209 132.846L40.2926 132.704C40.3553 132.657 40.4148 132.607 40.4707 132.553C41.3187 131.868 42.2345 131.211 42.8896 130.433C43.7037 129.477 44.0831 128.427 44.3248 127.327" fill="white"/>
<path d="M44.3271 127.287C44.3271 127.251 44.342 127.217 44.3483 127.172L44.3271 127.287Z" fill="white"/>
<path d="M44.3483 127.166C44.3483 127.211 44.3335 127.245 44.3271 127.281C44.0854 128.381 43.7059 129.43 42.8919 130.386C42.2368 131.164 41.3231 131.822 40.4729 132.506C40.4171 132.561 40.3576 132.611 40.2949 132.657L40.1231 132.805C40.1261 132.796 40.1261 132.787 40.1231 132.778C40.1166 132.753 40.1088 132.729 40.0998 132.706C40.0965 132.682 40.0965 132.657 40.0998 132.634V132.619C40.093 132.595 40.0881 132.571 40.085 132.547C40.0881 132.533 40.0881 132.518 40.085 132.504C40.0882 132.498 40.0898 132.49 40.0898 132.483C40.0898 132.476 40.0882 132.468 40.085 132.462C40.0797 132.423 40.0719 132.385 40.0617 132.347C40.0277 132.176 39.9769 132.012 39.926 131.841C39.8921 131.733 39.856 131.618 39.8136 131.512C39.7778 131.415 39.7367 131.319 39.6907 131.226C39.6606 131.133 39.6178 131.044 39.5635 130.963C39.5267 130.876 39.4835 130.793 39.4341 130.713C38.8999 129.791 38.0773 129.017 37.2717 128.243C37.1848 128.15 37.0937 128.056 37.0067 127.978C36.9198 127.9 36.8287 127.806 36.7439 127.722L36.2287 127.185C35.985 126.915 35.7564 126.632 35.5439 126.337C35.5439 126.337 36.0188 118.084 40.2376 115.587C44.2211 113.208 44.3483 125.773 44.3483 127.166Z" fill="white"/>
<path d="M44.3271 127.287C44.3271 127.251 44.342 127.217 44.3483 127.172L44.3271 127.287Z" fill="white"/>
<path d="M40.1168 132.778V132.812C40.1189 132.798 40.1189 132.783 40.1168 132.769C40.1168 132.754 40.1168 132.74 40.1168 132.712C40.1134 132.688 40.1134 132.664 40.1168 132.64C40.1136 132.686 40.1136 132.732 40.1168 132.778Z" fill="white"/>
<path d="M54.3949 119.235C46.7905 127.418 43.2162 144.675 41.8233 153.579C41.7089 154.332 41.6113 155.019 41.5181 155.638" fill="white"/>
<path d="M55.0967 160.651L51.5987 181.292C51.5158 181.856 51.2364 182.372 50.8097 182.75C50.383 183.128 49.8364 183.343 49.2667 183.357H30.9795C30.4049 183.342 29.8543 183.123 29.4269 182.738C28.9994 182.354 28.7231 181.83 28.6475 181.26L25.4209 160.651H55.0967Z" fill="white"/>
<path d="M58.4187 158.349C58.3868 158.96 58.1254 159.537 57.6868 159.964C57.2482 160.391 56.6646 160.636 56.0527 160.651H24.5135C23.9077 160.637 23.3293 160.396 22.8919 159.977C22.4545 159.558 22.1898 158.99 22.1497 158.385C22.0161 156.914 23.1122 155.629 24.5135 155.629H56.0527C57.4392 155.64 58.531 156.88 58.4187 158.349Z" fill="white"/>
<path d="M40.1381 132.82C40.1376 132.774 40.1297 132.728 40.1147 132.684L40.1381 132.82Z" fill="white"/>
<path d="M24.5093 113.401C31.8084 122.882 35.2428 142.869 36.5933 153.187C36.7078 154.082 36.8053 154.902 36.8922 155.636" fill="white"/>
<path d="M40.7805 123.475C39.8667 126.288 39.8222 129.129 39.9325 130.929C39.9616 131.51 40.0232 132.089 40.1169 132.663" fill="white"/>
<path d="M40.1231 132.805C40.1253 132.791 40.1253 132.777 40.1231 132.763C40.1231 132.748 40.1231 132.733 40.1231 132.706C40.1198 132.682 40.1198 132.657 40.1231 132.634C40.1291 132.684 40.139 132.735 40.1528 132.784C40.1496 132.789 40.1453 132.794 40.1402 132.798C40.1351 132.801 40.1293 132.804 40.1231 132.805Z" stroke="#CCDDE2" stroke-width="0.84164" stroke-miterlimit="10"/>
<path d="M40.2015 146.511C39.8744 147.566 39.4566 148.591 38.9528 149.574C38.8087 149.852 38.6666 150.124 38.5098 150.395C37.9742 151.4 37.317 152.336 36.553 153.181C36.4173 153.136 36.2816 153.079 36.1608 153.03C36.1332 153.03 36.1099 153.009 36.0887 153C33.6189 151.923 31.7639 149.903 31.2127 147.633C30.7209 145.633 31.164 143.471 30.2142 141.595C29.044 139.284 25.8894 137.838 25.4951 135.226C25.1389 132.784 27.3374 130.543 26.9791 128.152C26.572 125.445 23.2458 123.84 22.631 121.198C22.2388 119.557 22.5886 117.664 22.4465 115.972C22.2824 114.082 21.9619 112.207 21.4883 110.369C21.7172 110.354 21.9462 110.348 22.1752 110.34C26.8392 110.261 31.4544 112.884 32.9681 116.579C34.1892 119.564 33.568 123.011 35.1877 125.809C35.2858 125.99 35.3956 126.164 35.5163 126.331C35.7288 126.626 35.9574 126.909 36.2011 127.179L36.7162 127.715C36.801 127.8 36.8943 127.878 36.9791 127.972C37.0639 128.065 37.1572 128.143 37.2441 128.237C38.0497 129.006 38.8723 129.784 39.4065 130.706C39.4559 130.786 39.4991 130.87 39.5358 130.957C39.5858 131.04 39.6284 131.128 39.663 131.22C39.7091 131.313 39.7502 131.408 39.786 131.506C39.8284 131.612 39.8644 131.718 39.8984 131.834C39.9492 132.006 40.0001 132.169 40.034 132.341C40.034 132.383 40.034 132.419 40.0489 132.455C40.0637 132.492 40.0489 132.483 40.0489 132.498C40.052 132.512 40.052 132.526 40.0489 132.54C40.052 132.565 40.0569 132.589 40.0637 132.612V132.627C40.0645 132.654 40.0688 132.68 40.0764 132.706V132.706C40.0764 132.733 40.0764 132.748 40.0764 132.763C40.0786 132.777 40.0786 132.791 40.0764 132.805V132.82L39.5274 140.787C39.8793 142.714 40.7591 144.635 40.2015 146.511Z" stroke="#CCDDE2" stroke-width="0.84164" stroke-miterlimit="10"/>
<path d="M44.3481 127.172C44.7064 125.445 44.734 123.632 45.5481 121.983C47.0617 118.943 51.4841 116.736 56.1205 116.594H56.2053C56.6293 116.594 57.0533 116.594 57.4773 116.615C56.9976 118.195 56.6704 119.818 56.5 121.461C56.3431 122.924 56.712 124.561 56.3071 125.966C55.6562 128.249 52.1943 129.636 51.7745 131.97C51.4014 134.039 53.6931 135.975 53.3157 138.08C52.9087 140.336 49.6248 141.584 48.4122 143.592C47.4327 145.214 47.8907 147.075 47.384 148.796C46.7904 150.76 44.84 152.509 42.2727 153.429C42.1073 153.486 41.9589 153.543 41.7935 153.594C41.7066 153.615 41.607 153.651 41.5222 153.672C41.4925 153.651 41.4649 153.622 41.4289 153.594C40.6 152.888 39.6714 151.697 38.9019 150.414L38.9591 149.6C39.4628 148.617 39.8806 147.592 40.2078 146.537C40.7653 144.66 39.8855 142.74 39.5718 140.813L40.1209 132.846L40.2926 132.704C40.3553 132.657 40.4148 132.607 40.4707 132.553C41.3187 131.868 42.2345 131.211 42.8896 130.433C43.7037 129.477 44.0831 128.427 44.3248 127.327" stroke="#CCDDE2" stroke-width="0.84164" stroke-miterlimit="10"/>
<path d="M44.3271 127.287C44.3271 127.251 44.342 127.217 44.3483 127.172" stroke="#CCDDE2" stroke-width="0.84164" stroke-miterlimit="10"/>
<path d="M44.3483 127.166C44.3483 127.211 44.3335 127.245 44.3271 127.281C44.0854 128.381 43.7059 129.43 42.8919 130.386C42.2368 131.164 41.3231 131.822 40.4729 132.506C40.4171 132.561 40.3576 132.611 40.2949 132.657L40.1231 132.805C40.1261 132.796 40.1261 132.787 40.1231 132.778C40.1166 132.753 40.1088 132.729 40.0998 132.706V132.706C40.0965 132.682 40.0965 132.657 40.0998 132.634V132.619C40.093 132.595 40.0881 132.571 40.085 132.547C40.0881 132.533 40.0881 132.518 40.085 132.504C40.0882 132.498 40.0898 132.49 40.0898 132.483C40.0898 132.476 40.0882 132.468 40.085 132.462C40.0797 132.423 40.0719 132.385 40.0617 132.347C40.0277 132.176 39.9769 132.012 39.926 131.841C39.8921 131.733 39.856 131.618 39.8136 131.512C39.7778 131.415 39.7367 131.319 39.6907 131.226C39.6606 131.133 39.6178 131.044 39.5635 130.963C39.5267 130.876 39.4835 130.793 39.4341 130.713C38.8999 129.791 38.0773 129.017 37.2717 128.243C37.1848 128.15 37.0937 128.056 37.0067 127.978C36.9198 127.9 36.8287 127.806 36.7439 127.722L36.2287 127.185C35.985 126.915 35.7564 126.632 35.5439 126.337C35.5439 126.337 36.0188 118.084 40.2376 115.587C44.2211 113.208 44.3483 125.773 44.3483 127.166Z" stroke="#CCDDE2" stroke-width="0.84164" stroke-miterlimit="10"/>
<path d="M44.3271 127.287C44.3271 127.251 44.342 127.217 44.3483 127.172" stroke="#CCDDE2" stroke-width="0.84164" stroke-miterlimit="10"/>
<path d="M40.1168 132.778V132.812C40.1189 132.798 40.1189 132.783 40.1168 132.769C40.1168 132.754 40.1168 132.74 40.1168 132.712C40.1134 132.688 40.1134 132.664 40.1168 132.64C40.1136 132.686 40.1136 132.732 40.1168 132.778V132.778Z" stroke="#CCDDE2" stroke-width="0.84164" stroke-miterlimit="10"/>
<path d="M54.3949 119.235C46.7905 127.418 43.2162 144.675 41.8233 153.579C41.7089 154.332 41.6113 155.019 41.5181 155.638" stroke="#CCDDE2" stroke-width="0.84164" stroke-miterlimit="10"/>
<path d="M55.0967 160.651L51.5987 181.292C51.5158 181.856 51.2364 182.372 50.8097 182.75C50.383 183.128 49.8364 183.343 49.2667 183.357H30.9795C30.4049 183.342 29.8543 183.123 29.4269 182.738C28.9994 182.354 28.7231 181.83 28.6475 181.26L25.4209 160.651H55.0967Z" stroke="#CCDDE2" stroke-width="0.84164" stroke-miterlimit="10"/>
<path d="M58.4187 158.349C58.3868 158.96 58.1254 159.537 57.6868 159.964C57.2482 160.391 56.6646 160.636 56.0527 160.651H24.5135C23.9077 160.637 23.3293 160.396 22.8919 159.977C22.4545 159.558 22.1898 158.99 22.1497 158.385V158.385C22.0161 156.914 23.1122 155.629 24.5135 155.629H56.0527C57.4392 155.64 58.531 156.88 58.4187 158.349Z" stroke="#CCDDE2" stroke-width="0.84164" stroke-miterlimit="10"/>
<path d="M40.1381 132.82C40.1376 132.774 40.1297 132.728 40.1147 132.684L40.1381 132.82Z" stroke="#CCDDE2" stroke-width="0.84164" stroke-miterlimit="10"/>
<path d="M24.5093 113.401C31.8084 122.882 35.2428 142.869 36.5933 153.187C36.7078 154.082 36.8053 154.902 36.8922 155.636" stroke="#CCDDE2" stroke-width="0.84164" stroke-miterlimit="10"/>
<path d="M40.7805 123.475C39.8667 126.288 39.8222 129.129 39.9325 130.929C39.9616 131.51 40.0232 132.089 40.1169 132.663" stroke="#CCDDE2" stroke-width="0.84164" stroke-miterlimit="10"/>
<path d="M159.492 105.538C159 105.707 158.517 105.888 158.033 106.072L157.639 106.223C156.498 106.647 155.379 107.1 154.294 107.571C153.92 107.728 153.556 107.885 153.189 108.056C152.892 108.186 152.602 108.313 152.311 108.449L152.174 108.514C151.786 108.692 151.4 108.87 151.02 109.057C150.641 109.244 150.204 109.449 149.803 109.655C149.591 109.748 149.409 109.848 149.216 109.95C148.843 110.134 148.476 110.327 148.109 110.52C148.006 110.577 147.897 110.626 147.806 110.683C147.433 110.884 147.06 111.084 146.693 111.292C146.39 111.455 146.1 111.618 145.801 111.79C135.292 117.783 126.343 126.169 119.68 136.267C104.783 158.648 104.098 183.331 104.071 185.517L104.035 185.453C102.252 173.868 99.5233 163.829 96.0953 155.137L96.3645 154.253L95.896 154.618C95.896 154.618 95.896 154.618 95.896 154.603C96.568 139.884 99.4491 127.577 103.581 117.304L103.969 117.391C103.893 117.232 103.816 117.069 103.74 116.912C110.961 99.2224 121.908 87.6217 131.624 80.2632C143.072 71.5966 152.839 68.7898 152.839 68.7898C158.054 75.2346 159.242 94.9294 159.492 105.538Z" stroke="#CCDDE2" stroke-width="0.84164" stroke-miterlimit="10"/>
<path d="M160.185 181.684C158.664 181.379 157.175 181.014 155.716 180.59C149.733 178.841 142.784 175.856 140.401 169.581C139.805 167.96 139.617 166.216 139.854 164.505C140.091 162.794 140.746 161.168 141.76 159.77C142.835 158.279 144.346 157.158 146.085 156.562C149.869 155.339 154.056 157.245 156.863 160.064C159.67 162.884 161.476 166.513 163.675 169.829C161.686 165.377 159.668 160.796 159.394 155.928C159.182 152.133 160.213 148.018 162.829 145.167C165.237 142.542 170.868 140.488 174.183 142.411C176.371 143.683 177.245 146.388 177.62 148.89C178.65 155.735 177.327 162.691 176.011 169.488C176.895 165.854 177.845 162.186 179.647 158.909C181.449 155.631 184.211 152.735 187.749 151.521C190.228 150.673 193.17 150.764 195.246 152.369C197.181 153.853 198.046 156.382 198.313 158.811C198.758 162.886 197.8 167.018 196.151 170.768C189.996 184.767 172.928 184.228 160.185 181.684Z" fill="white"/>
<path d="M174.071 174.754C174.071 174.754 183.558 177.389 186.908 164.202L174.071 174.754Z" fill="white"/>
<path d="M169.85 152.246C167.213 158.224 169.85 176.161 169.85 176.161V152.246Z" fill="white"/>
<path d="M161.058 174.347C160.662 174.279 156.857 173.747 153.613 172.256C151.101 171.103 148.924 169.373 148.924 166.842" fill="white"/>
<path d="M154.374 166.844C154.374 166.844 150.666 171.167 153.613 172.258L154.374 166.844Z" fill="white"/>
<path d="M151.913 176.191C152.441 175.458 155.186 176.929 156.98 173.467L151.913 176.191Z" fill="white"/>
<path d="M168.678 160.16C167.741 159.456 165.286 160.16 164.925 154.531L168.678 160.16Z" fill="white"/>
<path d="M169.087 165.434C169.087 165.434 173.191 163.95 173.191 160.738L169.087 165.434Z" fill="white"/>
<path d="M177.908 174.83C177.908 174.83 180.049 169.303 180.929 166.842L177.908 174.83Z" fill="white"/>
<path d="M184.557 169.549C184.557 169.549 186.908 171.413 189.721 168.423L184.557 169.549Z" fill="white"/>
<path d="M184.557 166.844C184.557 166.844 183.039 166.185 183.743 162.392L184.557 166.844Z" fill="white"/>
<path d="M160.185 181.684C158.65 181.472 157.173 181.016 155.716 180.59C149.733 178.841 142.784 175.856 140.401 169.581C139.805 167.96 139.617 166.216 139.854 164.505C140.091 162.794 140.746 161.168 141.76 159.77C142.835 158.279 144.346 157.158 146.085 156.562C149.869 155.339 154.056 157.245 156.863 160.064C159.67 162.884 161.476 166.513 163.675 169.829C161.686 165.377 159.668 160.796 159.394 155.928C159.182 152.133 160.213 148.018 162.829 145.167C165.237 142.542 170.868 140.488 174.183 142.411C176.371 143.683 177.245 146.388 177.62 148.89C178.65 155.735 177.327 162.691 176.011 169.488C176.895 165.854 177.845 162.186 179.647 158.909C181.449 155.631 184.211 152.735 187.749 151.521C190.228 150.673 193.17 150.764 195.246 152.369C197.181 153.853 198.046 156.382 198.313 158.811C198.758 162.886 197.857 167.045 196.151 170.768C189.897 184.398 172.697 183.367 160.185 181.684Z" stroke="#CCDDE2" stroke-width="0.84164" stroke-miterlimit="10"/>
<path d="M174.071 174.754C174.071 174.754 183.558 177.389 186.908 164.202" stroke="#CCDDE2" stroke-width="0.84164" stroke-miterlimit="10"/>
<path d="M169.85 152.246C167.213 158.224 169.85 176.161 169.85 176.161" stroke="#CCDDE2" stroke-width="0.84164" stroke-miterlimit="10"/>
<path d="M161.058 174.347C160.662 174.279 156.857 173.747 153.613 172.256C151.101 171.103 148.924 169.373 148.924 166.842" stroke="#CCDDE2" stroke-width="0.84164" stroke-miterlimit="10"/>
<path d="M154.374 166.844C154.374 166.844 150.666 171.167 153.613 172.258" stroke="#CCDDE2" stroke-width="0.84164" stroke-miterlimit="10"/>
<path d="M151.913 176.191C152.441 175.458 155.186 176.929 156.98 173.467" stroke="#CCDDE2" stroke-width="0.84164" stroke-miterlimit="10"/>
<path d="M168.678 160.16C167.741 159.456 165.286 160.16 164.925 154.531" stroke="#CCDDE2" stroke-width="0.84164" stroke-miterlimit="10"/>
<path d="M169.087 165.434C169.087 165.434 173.191 163.95 173.191 160.738" stroke="#CCDDE2" stroke-width="0.84164" stroke-miterlimit="10"/>
<path d="M177.908 174.83C177.908 174.83 180.049 169.303 180.929 166.842" stroke="#CCDDE2" stroke-width="0.84164" stroke-miterlimit="10"/>
<path d="M184.557 169.549C184.557 169.549 186.908 171.413 189.721 168.423" stroke="#CCDDE2" stroke-width="0.84164" stroke-miterlimit="10"/>
<path d="M184.557 166.844C184.557 166.844 183.039 166.185 183.743 162.392" stroke="#CCDDE2" stroke-width="0.84164" stroke-miterlimit="10"/>
<path d="M185.203 133.863C187.099 135.496 188.791 137.352 190.242 139.39C192.911 143.039 194.421 147.406 194.576 151.923" stroke="#CCDDE2" stroke-width="0.84164" stroke-miterlimit="10"/>
<path d="M119.087 59.1226C122.903 56.8245 126.882 54.7829 131.113 53.3413C141.665 49.7373 153.429 50.5366 161.788 58.4463C169.034 65.296 172.46 75.472 173.159 85.224C173.159 85.3661 173.183 85.5166 173.189 85.6671C173.509 90.6915 173.246 96.2395 173.21 101.792" stroke="#CCDDE2" stroke-width="0.84164" stroke-miterlimit="10"/>
<path d="M35.9085 101.484C36.8646 95.3809 35.6965 89.64 35.0605 83.3584C33.4239 66.992 38.6285 47.4096 57.4816 44.961C67.7255 43.6254 76.0401 47.452 82.9662 54.7914C84.5222 56.4387 86.0783 58.3742 87.7256 60.2441" stroke="#CCDDE2" stroke-width="0.84164" stroke-miterlimit="10"/>
<path d="M28.5563 155.536C28.5563 155.536 14.2781 149.248 15.707 137.433C16.1055 134.098 17.6764 131.116 19.6608 128.374" stroke="#CCDDE2" stroke-width="0.84164" stroke-miterlimit="10"/>
<path d="M157.516 163.414C156.973 163.022 156.408 162.651 155.82 162.299C149.956 158.828 141.966 157.482 135.267 157.079C134.858 157.05 134.455 157.028 134.056 157.011C133.528 156.988 133.012 156.85 132.543 156.607C132.056 156.361 131.634 156.006 131.309 155.57C130.98 154.278 130.585 153.005 130.126 151.754L129.184 147.514C128.833 146.287 128.558 145.041 128.36 143.781C127.385 137.406 126.664 129.483 126.409 126.517C126.44 126.53 126.472 126.54 126.505 126.545L129.416 127.478C129.426 127.477 129.437 127.477 129.447 127.478L130.48 127.781C134.482 128.917 138.682 129.769 142.852 129.861C146.783 129.943 151.095 129.299 154.453 127.124C154.735 126.946 155.01 126.755 155.275 126.551C157.866 124.601 159.666 121.607 160.686 118.569C162.562 112.95 162.967 106.944 161.862 101.124C161.549 99.5214 161.108 97.9462 160.546 96.4133C159.062 92.3323 156.918 88.5079 155.078 84.5413C154.654 83.617 154.048 82.6482 153.974 81.6221C153.885 80.3989 154.512 79.2223 154.709 78.0329C154.939 76.6038 155.045 75.1576 155.027 73.7103C155.025 71.9934 154.696 70.2927 154.058 68.6986C153.509 67.3587 152.534 65.1115 150.802 65.1942C150.247 63.4177 149.318 61.3613 147.684 61.1302C147.259 61.0652 146.827 61.1703 146.479 61.4228C146.36 61.2509 146.23 61.086 146.091 60.9288C145.409 60.1613 144.118 59.4702 143.081 59.8688C141.025 60.6829 141.966 63.5131 142.986 65.6606C142.461 65.5476 141.922 65.5119 141.387 65.5546C140.189 65.6606 138.803 66.144 138.339 67.2973C138.086 67.9333 138.175 69.0802 138.82 69.4406C139.638 69.8879 140.643 69.5911 141.461 70.0109C142.375 70.4815 142.733 71.7429 142.6 72.6969C142.574 73.0709 142.425 73.4258 142.176 73.706C140.73 75.1519 139.738 71.162 139.189 70.5048C138.442 69.6081 137.349 69.7713 136.571 70.5281C135.034 72.0121 135.701 75.0013 136.346 76.7949C137.045 78.758 137.955 80.8229 139.407 82.3514C141.822 84.8848 142.087 88.9234 142.725 92.1903C142.988 93.5407 143.24 94.9039 143.444 96.2649C143.846 98.9065 144.08 101.565 143.868 104.232C143.814 104.964 143.609 105.677 143.267 106.326C142.925 106.976 142.452 107.547 141.878 108.005C141.304 108.463 140.642 108.797 139.933 108.987C139.224 109.177 138.483 109.218 137.758 109.108C136.03 108.845 134.007 108.531 131.854 108.194C131.854 108.194 131.87 108.177 131.881 108.173C128.945 107.174 126.348 107.052 123.764 106.916C116.473 105.788 109.926 104.728 109.926 104.728C109.777 104.7 109.643 104.622 109.545 104.506C109.448 104.39 109.394 104.244 109.392 104.092L109.303 95.9978C109.801 96.6084 110.882 96.6932 111.544 96.3391C111.807 96.2051 112.023 95.9947 112.164 95.7355C112.305 95.4763 112.365 95.1805 112.335 94.8869C112.763 94.8834 113.185 94.775 113.562 94.5711C113.674 94.5086 113.781 94.4377 113.882 94.3591C114.092 94.1715 114.26 93.9431 114.378 93.6879C114.496 93.4326 114.56 93.156 114.567 92.8751C114.576 92.7199 114.568 92.5642 114.544 92.4108C114.544 92.3535 114.527 92.2984 114.516 92.2369C114.493 92.1182 114.465 92.0016 114.431 91.8765C114.414 91.8045 114.393 91.7324 114.37 91.6645C114.315 91.4525 114.253 91.2405 114.207 91.0285C114.231 91.0317 114.256 91.0317 114.281 91.0285C114.49 91.0167 114.698 90.9869 114.902 90.9395C115.096 90.8932 115.286 90.8293 115.468 90.7487C115.57 90.7034 115.67 90.6524 115.767 90.5961C115.784 90.5902 115.799 90.5808 115.811 90.5685C115.976 90.4679 116.131 90.3538 116.276 90.2272C116.325 90.1868 116.372 90.1437 116.416 90.0979C116.498 90.0202 116.577 89.9381 116.651 89.8519C116.746 89.741 116.834 89.6249 116.916 89.5043C116.956 89.453 116.991 89.3984 117.022 89.341C117.316 88.869 117.531 88.3519 117.658 87.8104C117.669 87.7595 117.681 87.7086 117.692 87.6599C118.116 85.6416 117.48 83.3372 115.708 82.5846C115.354 82.4341 114.099 82.2878 114.099 81.7557C114.099 81.7176 114.105 81.6798 114.115 81.6433C114.113 81.6357 114.113 81.6276 114.115 81.62C114.149 81.5409 114.197 81.469 114.258 81.408C114.285 81.3741 114.323 81.3401 114.357 81.3062C114.431 81.2405 114.514 81.179 114.592 81.1154C114.673 81.0623 114.75 81.0042 114.824 80.9416C114.855 80.9156 114.884 80.888 114.913 80.8589C114.968 80.7974 115.025 80.7359 115.076 80.6745C115.126 80.6138 115.173 80.5501 115.216 80.4837C115.26 80.4158 115.305 80.348 115.345 80.2717C115.389 80.2048 115.427 80.1338 115.457 80.0597C115.521 79.9339 115.574 79.8026 115.614 79.6675C115.686 79.4453 115.731 79.2154 115.748 78.9827C115.748 78.9 115.748 78.8152 115.748 78.7304C115.748 76.8691 114.23 74.942 112.311 74.7385C112.001 74.7045 111.687 74.7415 111.393 74.8466C111.249 74.8966 111.107 74.9546 110.969 75.0204L110.757 75.1201C110.613 75.1879 110.467 75.26 110.316 75.3321C110.19 75.3925 110.052 75.4271 109.912 75.4338C109.879 75.4327 109.847 75.4285 109.816 75.4211L109.755 75.4041C109.71 75.3943 109.669 75.3715 109.638 75.3384C109.601 75.3113 109.57 75.2766 109.547 75.2367C109.528 75.1978 109.514 75.1564 109.507 75.1137C109.505 75.1111 109.504 75.1082 109.504 75.1052C109.504 75.1022 109.505 75.0993 109.507 75.0968C109.496 75.0473 109.491 74.9968 109.492 74.9462C109.491 74.8414 109.506 74.7372 109.536 74.6367C109.596 74.4177 109.626 74.1917 109.625 73.9647C109.625 73.8824 109.619 73.8003 109.608 73.7188C109.598 73.6055 109.581 73.493 109.557 73.3817C109.35 72.5615 108.857 71.8422 108.167 71.3528C106.223 69.9791 102.578 69.9727 101.574 72.5188C101.552 72.557 101.542 72.5973 101.525 72.6354C101.395 72.4849 101.266 72.328 101.137 72.1711C101.047 72.1136 100.954 72.0626 100.857 72.0185C99.5108 71.4313 97.5837 71.6835 96.6021 72.8326C95.7881 73.7866 95.5209 75.26 96.2439 76.3412C95.8385 75.8175 95.2887 75.424 94.6623 75.2091C94.7371 75.4188 94.8368 75.6188 94.9591 75.8048C94.9017 75.7267 94.8401 75.6517 94.7747 75.5801C94.7238 75.5229 94.6729 75.472 94.6221 75.4232C94.5712 75.3745 94.4991 75.3045 94.4376 75.2536C94.3761 75.2027 94.3083 75.1476 94.2426 75.0968C92.9812 74.1724 91.1241 74.077 89.9475 75.2324C89.0274 76.1355 88.8366 77.3842 89.1631 78.5947C89.4895 79.8053 90.2718 80.6469 90.8591 81.6899C88.8684 82.1903 87.2763 84.3972 87.9038 86.4663C88.0348 86.8943 88.2644 87.2856 88.574 87.6089C88.8837 87.9321 89.2647 88.1783 89.6867 88.3277C89.8378 88.3656 89.9916 88.3918 90.1467 88.4061C90.1986 88.4114 90.2488 88.4274 90.2942 88.453C90.3396 88.4785 90.3792 88.5132 90.4106 88.5548C90.4421 88.5963 90.4646 88.6439 90.4768 88.6946C90.489 88.7452 90.4907 88.7979 90.4817 88.8492C90.4501 88.9883 90.4337 89.1305 90.4329 89.2732C90.4342 89.6147 90.5234 89.9502 90.692 90.2473C90.8606 90.5443 91.1028 90.7929 91.3954 90.9692C91.4389 90.9934 91.4769 91.0263 91.5072 91.0658C91.5374 91.1053 91.5593 91.1506 91.5714 91.1988C91.5835 91.2471 91.5856 91.2973 91.5776 91.3464C91.5696 91.3955 91.5516 91.4425 91.5247 91.4843C91.23 91.9035 91.0568 92.396 91.0243 92.9074C90.9918 93.4188 91.1011 93.9292 91.3403 94.3824C91.9954 95.6947 93.6002 96.8331 95.1139 96.3837C95.6009 96.236 96.0223 95.9254 96.3075 95.5039C96.338 95.472 96.3643 95.4363 96.3859 95.3979C96.3914 95.3852 96.3993 95.3737 96.4092 95.3639C96.6272 95.0385 96.7719 94.6696 96.8332 94.2827C97.2062 94.874 97.6236 95.436 98.0819 95.9639L98.3575 96.2713L97.5201 101.436L97.3971 102.366C97.3517 102.688 97.1916 102.983 96.9462 103.197C96.7009 103.41 96.3867 103.528 96.0615 103.528C95.8771 103.528 95.6863 103.528 95.5019 103.528C95.1266 103.528 94.7556 103.539 94.3867 103.549C93.2653 103.577 92.148 103.628 91.0329 103.696C90.1849 103.751 89.356 103.812 88.5228 103.886C88.0988 103.92 87.6918 103.958 87.272 104.003C86.8523 104.047 86.4367 104.088 86.0212 104.132C85.2093 104.223 84.3909 104.317 83.5769 104.425C82.5953 104.554 81.6201 104.688 80.6385 104.828C79.1037 105.052 77.573 105.298 76.036 105.563C74.5393 105.822 73.0489 106.091 71.5522 106.365C69.4492 106.753 67.3249 107.077 65.1922 107.425C64.6322 107.515 64.0593 107.485 63.5119 107.336C62.9644 107.188 62.455 106.924 62.0175 106.563C61.5801 106.202 61.2248 105.751 60.9753 105.242C60.7257 104.732 60.5878 104.176 60.5706 103.609C60.3311 96.6126 64.2933 83.8523 64.2933 83.8523C64.3845 82.8602 65.5653 82.1563 66.2565 81.5924C68.2344 80.03 69.4025 77.2316 70.0852 74.8763C70.5685 73.1951 71.0265 70.7953 69.6039 69.4173C68.8238 68.6604 67.7299 68.4972 66.9857 69.3939C66.4367 70.0554 65.4445 74.041 63.9965 72.5951C63.7476 72.3149 63.5985 71.96 63.5725 71.586C63.4475 70.6342 63.7845 69.3727 64.7089 68.9C65.5272 68.476 66.5321 68.777 67.3504 68.3297C67.9864 67.9693 68.0839 66.816 67.8316 66.1864C67.3673 65.0331 65.983 64.5498 64.7831 64.4438C64.2479 64.4011 63.7094 64.4368 63.1846 64.5498C64.2043 62.4022 65.1477 59.572 63.0892 58.76C62.0525 58.3509 60.7572 59.0399 60.0788 59.8073C59.9409 59.9645 59.8121 60.1294 59.6929 60.3013C59.3447 60.0496 58.9115 59.9445 58.4867 60.0087C56.8437 60.2398 55.9257 62.2962 55.3703 64.0749C53.6552 63.9901 52.6842 66.1949 52.1288 67.5326C51.4993 69.0734 51.1649 70.7188 51.143 72.3831C51.09 74.1536 51.215 75.9249 51.5161 77.6704C51.656 78.423 51.9083 79.1396 52.0885 79.8752C52.2857 80.6766 52.0715 81.4716 51.7811 82.2242C50.6427 85.1053 49.0378 87.8019 47.8337 90.6618C46.528 93.6884 45.4812 96.8203 44.7045 100.024C43.2078 106.348 42.9004 113.053 44.6494 119.36C47.9566 131.279 64.7131 127.365 74.3125 124.024C78.3256 122.629 81.0965 121.328 81.0965 121.328C81.0965 121.328 81.1177 122.252 81.1177 123.816V124.028C81.1071 126.148 80.9226 143.062 78.0733 155.481L77.9779 155.644C78.0013 155.627 78.0458 155.627 78.0733 155.778C77.9169 156.117 77.6662 156.404 77.3513 156.604C77.0363 156.805 76.6703 156.911 76.2968 156.91C69.4746 156.882 40.7465 157.851 46.1928 176.414C47.2125 179.901 49.8752 182.138 53.6128 183.461C56.5808 184.521 60.2293 184.981 64.27 185.015H64.2976C56.3985 186.511 54.5604 198.262 63.3733 200.039C66.7653 200.722 69.4513 198.525 72.4999 197.588C74.2422 197.073 76.0562 196.843 77.8719 196.906C79.0569 196.934 80.2384 197.045 81.4081 197.236C94.2151 199.333 107.211 200.04 120.17 199.344C128.932 198.862 137.864 197.762 146.178 194.83C152.445 192.617 159.322 188.744 162.409 182.746C163.503 180.635 164.068 178.291 164.056 175.913C164.048 170.264 161.436 166.244 157.516 163.414Z" fill="white"/>
<path d="M25.3169 183.143L24.9968 182.839" stroke="#CCDDE2" stroke-width="0.84164" stroke-miterlimit="10"/>
<path d="M130.132 151.444L129.188 147.194C128.838 145.967 128.563 144.721 128.366 143.46C127.391 137.086 126.67 129.165 126.413 126.199L129.453 127.168L128.393 124.809C128.393 124.809 124.902 113.057 131.887 107.883C126.835 106.163 122.788 107.047 118.061 105.96C116.24 105.536 114.317 105.165 112.192 104.817L110.655 104.548C110.594 108.724 107.687 109.672 105.296 110.126C99.4088 111.253 95.3321 106.958 95.5017 103.219C88.9657 103.293 82.5061 104.156 76.0379 105.254C76.8732 107.704 78.6328 115.048 73.6826 123.732L74.3186 123.71C78.3318 122.313 81.1026 121.014 81.1026 121.014C81.1026 121.014 81.1259 121.938 81.1259 123.503V123.715C81.1153 125.822 80.9309 142.748 78.0816 155.165C77.8696 155.57 78.035 155.072 78.0816 155.521C77.9087 155.866 77.79 156.236 77.7297 156.617L77.8675 156.068C77.1001 157.168 79.0208 158.502 81.7959 159.174C89.0505 160.946 129.04 164.05 131.298 156.617C131.431 156.174 131.435 155.702 131.311 155.256C130.982 153.966 130.589 152.694 130.132 151.444Z" fill="#353642"/>
<path d="M77.8696 196.585C76.0559 196.525 74.2442 196.756 72.5039 197.27C69.4532 198.205 66.763 200.404 63.3752 199.719C54.5624 197.942 56.4025 186.191 64.3016 184.694C65.0585 184.677 65.8153 184.673 66.5658 184.673H66.6167C70.2546 184.673 73.7992 184.769 76.7079 183.764C76.4344 184.016 69.3472 190.302 77.8696 196.585Z" fill="#71DDB1"/>
<path d="M110.649 104.539V104.55C110.588 108.726 107.681 109.674 105.29 110.128C99.4025 111.255 95.3257 106.96 95.4953 103.221" stroke="black" stroke-width="0.84164" stroke-miterlimit="10"/>
<path d="M64.308 184.694C56.4089 186.191 54.5687 197.942 63.3815 199.719C66.7735 200.404 69.4596 198.205 72.5103 197.27C74.2519 196.756 76.0651 196.524 77.8802 196.585C79.0626 196.618 80.2413 196.732 81.4079 196.927C94.2145 199.028 107.211 199.739 120.17 199.047C128.932 198.563 137.861 197.465 146.176 194.533C152.445 192.318 159.32 188.445 162.407 182.449C163.501 180.338 164.066 177.993 164.054 175.614C164.054 169.958 161.436 165.939 157.524 163.106C156.98 162.714 156.413 162.345 155.828 161.991C149.964 158.521 141.976 157.175 135.277 156.772C134.868 156.744 134.463 156.721 134.067 156.704C133.539 156.682 133.022 156.545 132.553 156.301C132.066 156.057 131.643 155.702 131.319 155.265C131.003 154.85 130.781 154.372 130.668 153.863L130.136 151.446L129.193 147.196L128.366 143.46C127.391 137.086 126.67 129.165 126.413 126.199" stroke="black" stroke-width="0.84164" stroke-miterlimit="10"/>
<path d="M138.048 178.994C135.434 184.97 128.97 182.924 121.868 178.623C117.461 175.954 113.7 175.574 111.48 175.655C114.609 175.375 117.344 174.41 118.114 170.872C118.735 167.997 117.115 165.36 114.313 164.512C121.05 164.215 127.963 164.724 133.446 168.964C133.45 168.964 140.666 173.011 138.048 178.994Z" fill="#71DDB1"/>
<path d="M114.268 90.6936C114.244 90.6967 114.22 90.6967 114.196 90.6936C114.262 91.0243 114.387 91.3784 114.469 91.7303C114.536 91.9963 114.564 92.2704 114.554 92.5444C114.465 93.827 113.556 94.5223 112.322 94.5562C112.353 94.8506 112.294 95.1475 112.154 95.4078C112.013 95.6682 111.797 95.8798 111.533 96.0148C110.872 96.3625 109.788 96.2841 109.29 95.6714C108.701 94.9612 108.993 94.0793 109.352 93.3012C109.481 93.0277 109.61 92.7691 109.716 92.5338C109.846 92.2412 109.958 91.9508 110.058 91.654C110.411 90.5557 110.684 89.4334 110.876 88.2959C111.111 87.1469 111.266 85.9831 111.34 84.8127C111.262 84.5287 111.313 84.1174 111.2 83.8206C111.037 83.3625 110.742 82.9628 110.352 82.6715C109.547 82.0779 108.474 82.1161 107.618 81.5903C106.842 81.1074 106.23 80.4018 105.862 79.5657C105.79 79.3919 105.722 79.1672 105.62 78.9721C105.575 78.8662 105.506 78.772 105.419 78.6965C105.033 78.3722 104.809 78.9446 104.571 79.1672C104.328 79.3919 104.039 79.5623 103.725 79.6668C103.41 79.7714 103.077 79.8077 102.748 79.7735C102.499 79.7407 102.256 79.6691 102.029 79.5615C101.862 79.4709 101.707 79.3613 101.565 79.235C101.397 79.0712 101.201 78.9385 100.986 78.8428C100.583 78.6923 100.562 79.358 100.505 79.5891C100.467 79.7888 100.384 79.9772 100.262 80.1402C100.141 80.3032 99.9836 80.4366 99.8032 80.5303C99.5853 80.6374 99.3463 80.6946 99.1036 80.6978C98.8207 80.7092 98.5381 80.6712 98.2683 80.5855C98.0078 80.5081 97.76 80.3931 97.5327 80.2441C97.4919 80.2167 97.4442 80.2012 97.3951 80.1995C97.346 80.1977 97.2974 80.2098 97.2548 80.2343C97.2122 80.2588 97.1773 80.2948 97.1541 80.3381C97.1309 80.3814 97.1203 80.4304 97.1235 80.4795C97.202 82.6715 95.1519 83.4347 94.3103 83.6595C94.0274 87.2773 94.9116 90.8906 96.8331 93.969C96.7621 94.4145 96.5806 94.835 96.3052 95.1922C94.9208 95.5399 93.3224 95.1626 92.7224 93.969C92.0864 92.697 92.1733 90.9353 93.1612 90.0279C92.4765 89.9219 92.2857 88.9107 92.6779 88.3171C92.7118 88.2599 92.7266 88.2259 92.7054 88.1708C92.6206 87.9397 91.6136 87.7468 91.338 87.662C90.9448 87.5216 90.5897 87.2914 90.3012 86.9896C90.0126 86.6878 89.7985 86.3228 89.676 85.9236C89.093 84.0008 90.5727 81.9486 92.4214 81.4843C91.8723 80.5134 91.1494 79.729 90.842 78.6075C90.5346 77.486 90.7084 76.32 91.5649 75.472C91.9133 75.1407 92.339 74.9016 92.8032 74.7765C93.2675 74.6513 93.7556 74.6441 94.2234 74.7555C94.4961 74.9537 94.7377 75.1916 94.9399 75.4614C94.8155 75.2774 94.7157 75.0778 94.6431 74.8678C95.2705 75.0808 95.8208 75.4747 96.2246 75.9999C95.5017 74.9187 95.7709 73.4432 96.5829 72.4892C97.5645 71.3401 99.4937 71.0879 100.838 71.6772C100.935 71.721 101.029 71.7713 101.12 71.8277C101.247 71.9867 101.376 72.1436 101.506 72.2941C101.52 72.2535 101.537 72.2138 101.556 72.1754C101.829 72.4559 102.088 72.7503 102.33 73.0573C103.204 70.5727 106.674 70.5663 108.508 71.8617C108.94 72.1698 109.293 72.575 109.54 73.0446C109.633 73.4573 109.625 73.8864 109.517 74.2954C109.405 74.6876 109.494 74.9844 109.746 75.0692C109.936 75.1154 110.136 75.0897 110.308 74.9971C110.98 74.694 111.535 74.323 112.315 74.4078C114.859 74.677 116.714 77.9842 115.207 80.1424C115.118 80.2764 115.016 80.402 114.904 80.5176C114.692 80.7296 114.215 80.9776 114.109 81.2808C114.106 81.2883 114.106 81.2966 114.109 81.3041C113.918 81.9401 115.326 82.0822 115.701 82.2454C119.025 83.6467 118.324 90.4816 114.268 90.6936Z" fill="#71DDB1"/>
<path d="M56.4767 73.4559C55.686 71.7726 56.2647 69.413 57.1657 67.6301C57.8547 66.2458 57.3056 64.0261 55.546 63.7781C53.7186 63.5322 52.6968 65.8366 52.1265 67.2273C51.4959 68.7686 51.1607 70.4148 51.1386 72.08C51.0918 73.8509 51.2217 75.6221 51.5265 77.3673C51.6664 78.1178 51.9187 78.8364 52.0968 79.57C52.294 80.3713 52.0798 81.1684 51.7894 81.9189C50.651 84.8 49.0482 87.4966 47.842 90.3565C46.5382 93.3837 45.4922 96.5154 44.715 99.7184C43.2182 106.042 42.9087 112.748 44.6577 119.055C47.9649 130.974 64.7235 127.06 74.3208 123.719C78.3339 122.322 81.1048 121.022 81.1048 121.022C81.1048 121.022 81.1281 121.947 81.1281 123.511C81.1281 123.583 81.1281 123.657 81.1281 123.723C81.1408 130.013 80.8885 145.818 78.1792 155.207C78.0619 155.612 77.8156 155.968 77.4777 156.22C77.1398 156.472 76.7288 156.607 76.3072 156.604C69.485 156.577 40.759 157.546 46.2032 176.098C48.0434 182.365 55.1687 184.618 64.272 184.697H64.3122C65.0521 184.697 65.809 184.697 66.5764 184.675H66.6273C70.0089 184.558 73.3813 184.253 76.7291 183.762C88.5884 182.091 101.207 178.525 109.358 175.956C109.828 175.832 110.308 175.752 110.793 175.716C110.995 175.693 111.217 175.676 111.467 175.665H111.489C113.704 175.576 117.465 175.956 121.877 178.633C128.979 182.935 135.445 184.981 138.056 179.004C140.668 173.028 133.45 168.964 133.45 168.964C127.967 164.724 121.054 164.222 114.317 164.512C112.237 164.603 110.168 164.777 108.169 164.936C100.168 165.573 92.1655 166.209 84.1618 166.844L73.6763 167.692" stroke="black" stroke-width="0.84164" stroke-miterlimit="10"/>
<path d="M59.3282 72.3323C59.3282 72.3323 58.1856 70.0236 59.5996 66.4132C60.1826 64.9292 60.8546 63.1336 60.579 61.5076C60.4928 60.9056 60.1729 60.3618 59.6886 59.9939C59.3405 59.7419 58.907 59.6375 58.4824 59.7034C56.8415 59.9324 55.9214 61.9909 55.366 63.7675" stroke="black" stroke-width="0.84164" stroke-miterlimit="10"/>
<path d="M61.7153 70.9924C61.7153 70.9924 60.6299 69.1544 62.1096 66.3284C62.3577 65.8578 62.7774 65.1052 63.1696 64.2487C64.1915 62.1012 65.1327 59.271 63.0742 58.4569C62.0375 58.0477 60.7422 58.7367 60.0638 59.5063C59.9259 59.6627 59.7971 59.827 59.678 59.9981" stroke="black" stroke-width="0.84164" stroke-miterlimit="10"/>
<path d="M63.176 64.236C63.7006 64.122 64.2393 64.0862 64.7744 64.13C65.9744 64.236 67.3587 64.7172 67.8251 65.8726C68.0774 66.5086 67.9862 67.6556 67.3418 68.0138C66.5234 68.4633 65.5207 68.1665 64.7024 68.5862C63.7886 69.0569 63.4304 70.3183 63.5639 71.2723C63.5898 71.6463 63.7389 72.0011 63.9879 72.2814C65.4338 73.7272 66.4259 69.7374 66.975 69.0802C67.7212 68.1834 68.813 68.3446 69.5932 69.1014C71.0178 70.4794 70.5578 72.8771 70.0723 74.5604C69.3918 76.9157 68.2237 79.7141 66.2563 81.2744C65.5525 81.8299 64.3822 82.5464 64.2932 83.5386C64.2932 83.5386 60.3309 96.2904 60.5684 103.293C60.5856 103.86 60.7235 104.416 60.9729 104.925C61.2223 105.435 61.5774 105.885 62.0146 106.246C62.4518 106.607 62.9609 106.871 63.5082 107.02C64.0554 107.169 64.628 107.199 65.1878 107.109C67.3078 106.763 69.4406 106.439 71.5478 106.049C73.0446 105.775 74.5349 105.506 76.0316 105.247C82.6863 104.115 89.3304 103.236 96.0572 103.206C96.3823 103.206 96.6966 103.089 96.9421 102.876C97.1876 102.663 97.3477 102.368 97.3928 102.046L97.52 101.124L98.3574 95.9491" stroke="black" stroke-width="0.84164" stroke-miterlimit="10"/>
<path d="M149.691 74.5774C150.482 72.8941 149.903 70.5345 149.002 68.7516C148.307 67.3672 148.862 65.1476 150.622 64.8996C150.683 64.8996 150.745 64.889 150.802 64.889C152.534 64.8042 153.509 67.0535 154.058 68.3933C154.697 69.9873 155.026 71.688 155.029 73.405C155.046 74.8524 154.938 76.2985 154.709 77.7277C154.514 78.9149 153.884 80.0936 153.976 81.3147C154.048 82.3408 154.654 83.3118 155.08 84.2361C156.918 88.1941 159.07 92.0165 160.545 96.1081C161.108 97.6403 161.548 99.2148 161.862 100.817C162.97 106.635 162.568 112.641 160.696 118.26C159.674 121.3 157.876 124.293 155.286 126.244C155.017 126.446 154.742 126.637 154.461 126.816C151.103 128.991 146.791 129.636 142.863 129.551C138.69 129.462 134.493 128.61 130.488 127.471C129.788 127.271 129.092 127.059 128.398 126.835C127.668 126.604 126.946 126.369 126.223 126.123C125.466 125.86 124.709 125.595 123.958 125.315" stroke="black" stroke-width="0.84164" stroke-miterlimit="10"/>
<path d="M150.802 64.889C150.247 63.1124 149.318 61.0539 147.686 60.8249C147.261 60.759 146.827 60.8633 146.479 61.1154C145.995 61.4832 145.675 62.0271 145.589 62.629C145.313 64.2551 145.985 66.0486 146.568 67.5347C147.982 71.1387 146.838 73.4559 146.838 73.4559" stroke="black" stroke-width="0.84164" stroke-miterlimit="10"/>
<path d="M146.479 61.1154C146.361 60.9415 146.227 60.7804 146.093 60.6214C145.409 59.854 144.12 59.165 143.081 59.5741C141.024 60.3861 141.966 63.2184 142.988 65.366C143.39 66.214 143.81 66.975 144.048 67.4457C145.532 70.2759 144.44 72.1097 144.44 72.1097" stroke="black" stroke-width="0.84164" stroke-miterlimit="10"/>
<path d="M142.988 65.366C142.463 65.2523 141.925 65.2159 141.389 65.2579C140.189 65.366 138.805 65.8472 138.339 67.0026C138.086 67.6386 138.177 68.7855 138.822 69.1438C139.64 69.5933 140.643 69.2943 141.461 69.7162C142.375 70.1869 142.733 71.4483 142.6 72.4023C142.574 72.7762 142.425 73.1311 142.176 73.4114C140.73 74.8572 139.738 70.8674 139.189 70.2102C138.442 69.3113 137.351 69.4745 136.571 70.2314C135.034 71.7154 135.701 74.7046 136.346 76.5002C137.048 78.4612 137.955 80.5282 139.407 82.0546C141.824 84.5986 142.087 88.6266 142.727 91.8935C142.99 93.2461 143.242 94.6071 143.444 95.9703C143.846 98.6097 144.08 101.27 143.868 103.937C143.814 104.669 143.609 105.383 143.266 106.032C142.924 106.681 142.451 107.253 141.877 107.711C141.303 108.168 140.641 108.503 139.931 108.692C139.222 108.882 138.481 108.923 137.756 108.813C128.275 107.361 109.926 104.412 109.926 104.412C109.776 104.386 109.64 104.308 109.541 104.192C109.443 104.076 109.389 103.929 109.388 103.776L109.299 95.6799" stroke="black" stroke-width="0.84164" stroke-miterlimit="10"/>
<path d="M94.3017 83.6531C93.9137 87.8231 95.3617 92.538 98.0753 95.6459C103.138 101.436 107.403 95.6459 107.403 95.6459" stroke="black" stroke-width="0.84164" stroke-miterlimit="10"/>
<path d="M111.395 84.9463C111.247 84.6707 111.334 84.1725 111.207 83.8227C111.042 83.3644 110.748 82.9643 110.359 82.6715C109.549 82.08 108.478 82.1161 107.624 81.5945C106.848 81.1091 106.235 80.4025 105.864 79.5657C105.746 79.2986 105.652 78.8915 105.425 78.6986C105.038 78.3743 104.813 78.9445 104.577 79.1693C104.242 79.4822 103.82 79.6871 103.366 79.7574C102.913 79.8277 102.448 79.7602 102.033 79.5636C101.652 79.3749 101.387 78.9954 100.988 78.8449C100.59 78.6944 100.564 79.3579 100.505 79.5911C100.467 79.7907 100.385 79.9791 100.264 80.1424C100.143 80.3057 99.9871 80.4397 99.8075 80.5345C99.1058 80.8801 98.1475 80.6533 97.537 80.2441C97.496 80.2159 97.448 80.1998 97.3983 80.1978C97.3486 80.1958 97.2994 80.208 97.2563 80.2328C97.2132 80.2577 97.1781 80.2943 97.155 80.3383C97.1319 80.3823 97.1217 80.432 97.1257 80.4815C97.2211 83.2375 93.9563 83.7315 93.9563 83.7315" stroke="black" stroke-width="0.84164" stroke-miterlimit="10"/>
<path d="M98.9086 89.7184C100.541 89.7184 101.864 88.3953 101.864 86.7631C101.864 85.131 100.541 83.8078 98.9086 83.8078C97.2765 83.8078 95.9534 85.131 95.9534 86.7631C95.9534 88.3953 97.2765 89.7184 98.9086 89.7184Z" stroke="black" stroke-width="0.84164" stroke-miterlimit="10"/>
<path d="M106.568 89.4555C108.2 89.4555 109.523 88.1324 109.523 86.5002C109.523 84.8681 108.2 83.545 106.568 83.545C104.936 83.545 103.613 84.8681 103.613 86.5002C103.613 88.1324 104.936 89.4555 106.568 89.4555Z" stroke="black" stroke-width="0.84164" stroke-miterlimit="10"/>
<path d="M97.6726 87.0599C97.6726 87.0599 98.864 88.4273 100.089 87.0599" stroke="black" stroke-width="0.84164" stroke-miterlimit="10"/>
<path d="M105.364 87.0599C105.364 87.0599 106.555 88.4273 107.783 87.0599" stroke="black" stroke-width="0.84164" stroke-miterlimit="10"/>
<path d="M103.093 93.5789C103.668 93.5789 104.134 93.1129 104.134 92.538C104.134 91.9631 103.668 91.4971 103.093 91.4971C102.519 91.4971 102.052 91.9631 102.052 92.538C102.052 93.1129 102.519 93.5789 103.093 93.5789Z" stroke="black" stroke-width="0.84164" stroke-miterlimit="10"/>
<path d="M101.864 86.7631C101.864 86.7631 102.534 85.6713 103.613 86.5002" stroke="black" stroke-width="0.84164" stroke-miterlimit="10"/>
<path d="M100.505 82.3768C100.505 82.3768 97.4373 80.0321 94.8657 82.2433" stroke="black" stroke-width="0.84164" stroke-miterlimit="10"/>
<path d="M109.481 81.1472C109.481 81.1472 105.837 79.8752 104.077 82.769" stroke="black" stroke-width="0.84164" stroke-miterlimit="10"/>
<path d="M96.7355 93.8672C96.7283 94.3586 96.5669 94.8353 96.2739 95.2298C95.981 95.6243 95.5714 95.9168 95.1031 96.0657C93.5894 96.513 91.9867 95.3767 91.3295 94.0644C91.0899 93.6109 90.9806 93.0999 91.0135 92.588C91.0464 92.0761 91.2203 91.5834 91.516 91.1642C91.5424 91.1223 91.56 91.0754 91.5677 91.0264C91.5754 90.9775 91.573 90.9275 91.5607 90.8794C91.5484 90.8314 91.5264 90.7864 91.4962 90.7472C91.4659 90.7079 91.4279 90.6753 91.3846 90.6512C91.0903 90.4742 90.847 90.2239 90.6783 89.9248C90.5096 89.6257 90.4213 89.288 90.4221 88.9446C90.4228 88.802 90.4384 88.6599 90.4687 88.5206C90.4784 88.4691 90.4772 88.4161 90.4653 88.3651C90.4533 88.314 90.4309 88.2661 90.3994 88.2242C90.3679 88.1823 90.328 88.1474 90.2823 88.1218C90.2365 88.0962 90.186 88.0804 90.1338 88.0754C89.9795 88.0613 89.8264 88.0358 89.6759 87.9991C89.2541 87.8494 88.8731 87.6032 88.5636 87.2799C88.254 86.9567 88.0243 86.5656 87.8929 86.1377C87.2569 84.0686 88.8575 81.8596 90.8482 81.3614C90.2546 80.3183 89.4681 79.4767 89.1522 78.2662C88.8363 77.0556 89.0187 75.8048 89.9366 74.9017C91.3676 73.5004 93.795 73.9371 94.9483 75.4741C94.1703 74.3081 94.4607 72.7181 95.3363 71.6963C96.3963 70.4624 98.4633 70.1932 99.9112 70.8207C100.6 71.1239 101.043 71.7514 101.514 72.3047C102.455 69.642 106.178 69.625 108.158 71.02C109.188 71.7556 109.854 73.0891 109.525 74.306C109.352 74.9229 109.672 75.2918 110.316 75.0077C110.961 74.7236 111.544 74.3336 112.324 74.4184C115.025 74.7046 116.943 78.404 114.912 80.5282C114.7 80.7529 114.223 80.9882 114.117 81.2914C113.886 81.9274 115.322 82.0928 115.703 82.256C119.057 83.6637 118.321 90.5706 114.219 90.7106C114.342 91.2978 114.622 91.9486 114.577 92.555C114.488 93.8376 113.579 94.5329 112.345 94.5732C112.375 94.8665 112.316 95.1622 112.175 95.4213C112.035 95.6805 111.819 95.891 111.556 96.0254C110.895 96.3773 109.812 96.2946 109.313 95.682C108.516 94.7195 109.335 93.4581 109.737 92.538C110.331 91.1918 110.624 89.7396 110.893 88.298C111.139 87.1035 111.298 85.8926 111.368 84.6749V84.624" stroke="black" stroke-width="0.84164" stroke-miterlimit="10"/>
<path d="M10.6001 183.143H53.6849" stroke="black" stroke-width="0.84164" stroke-miterlimit="10"/>
<path d="M162.099 183.143H201.4" stroke="black" stroke-width="0.84164" stroke-miterlimit="10"/>
</svg>
