<svg width="29" height="31" viewBox="0 0 29 31" fill="none" xmlns="http://www.w3.org/2000/svg">
<path fill-rule="evenodd" clip-rule="evenodd" d="M21.2106 0.96296H28.2237C28.2237 0.96296 28.4904 8.66762 21.2106 8.66762C19.8578 8.66762 18.663 8.02137 17.9386 7.03325C17.6494 6.6384 17.0621 6.58832 16.7109 6.9331L15.207 8.40757V13.3934L13.2058 14.0243V3.59217C12.6084 3.25894 12.2052 2.63873 12.2052 1.92603C12.2052 0.828126 13.1598 -0.0559851 14.3155 0.00276832C15.349 0.0547722 16.1855 0.887831 16.2076 1.88367C16.2236 2.61367 15.8163 3.25219 15.207 3.59217V5.20918L18.2218 2.25252V2.25445C18.9552 1.46184 20.0218 0.96296 21.2106 0.96296ZM10.4646 7.00913C10.7553 6.61281 11.346 6.56352 11.6991 6.90861L12.2052 7.40448V4.19432L10.1799 2.21177V2.21272C9.44237 1.41818 8.36981 0.917458 7.17458 0.917458H0.122559C0.122559 0.917458 0.547154 8.65046 7.17458 8.65046C8.53483 8.65046 9.73616 8.00184 10.4646 7.00913ZM11.0846 14.737L11.0735 14.7409C10.2278 15.0161 9.48297 15.3966 8.85801 15.8592C7.53456 14.8529 7.31785 13.694 7.31785 13.045C7.31785 12.1265 7.53357 11.2525 8.54454 10.4161C9.60187 9.51702 10.9777 9.4639 11.4807 10.2539C11.9434 10.9801 11.4908 12.141 10.4707 12.848C10.1159 13.0933 9.73993 13.2497 9.38014 13.3212C9.50511 13.7085 9.8851 14.1025 10.4647 14.4347C10.6693 14.5516 10.8356 14.6375 11.0846 14.737ZM16.9962 10.6724C17.4796 9.71399 18.8029 9.7807 19.8182 10.8689C20.7908 11.8823 20.9972 12.9412 21.0001 14.0552C21.0001 14.9539 20.7289 16.6588 18.9086 17.9728C18.4929 18.2724 18.18 18.4538 17.558 18.7241C18.8891 19.5361 19.6593 20.8186 19.6593 22.2825C19.6593 24.4016 18.2004 25.6127 16.5516 26.3323C17.3672 27.0379 17.7974 27.9588 17.7974 28.9078C17.7974 29.5244 17.7334 30.1715 16.91 30.9251L16.909 30.9239C16.8606 30.9707 16.8005 31 16.7337 31C16.5786 31 16.4527 30.8479 16.4527 30.6607C16.4527 30.5986 16.4673 30.5413 16.4915 30.491L16.4905 30.4898C17.1134 29.2272 16.413 28.4304 15.2999 27.8664V29.8287C15.2999 30.4746 14.8659 30.9988 14.3311 30.9988C13.7964 30.9988 13.3624 30.4746 13.3624 29.8287V27.8652C12.2037 28.4526 11.607 29.1313 12.1689 30.4898C12.1931 30.5401 12.2076 30.5975 12.2076 30.6595C12.2076 30.8467 12.0817 30.9988 11.9266 30.9988C11.8598 30.9988 11.7988 30.9696 11.7503 30.9228L11.7494 30.9239C10.8988 30.2031 10.8426 29.4777 10.8426 28.8926C10.8426 27.8734 11.2805 27.0063 12.0952 26.3241C12.4861 25.9984 12.7252 25.8704 13.7104 25.3428L13.7108 25.3426L13.7115 25.3422C13.8907 25.2462 14.0944 25.1371 14.3282 25.0112C14.6815 24.8208 15.001 24.6517 15.2894 24.4991C17.1543 23.5123 17.7189 23.2135 17.7189 22.2801C17.7189 21.8355 17.1938 21.1708 16.1921 20.759C15.9583 20.6645 15.7346 20.5752 15.5201 20.4896L15.2979 20.4009V21.8928L13.3604 22.9366V20.3997C13.0785 20.5121 12.7801 20.6314 12.4634 20.759C11.4617 21.1697 10.9366 21.8355 10.9366 22.2801C10.9366 22.8874 11.173 23.242 11.9393 23.71C11.2737 24.1044 10.7041 24.597 10.2478 25.1645C9.52217 24.4671 9.00006 23.5146 9.00006 22.2801C9.00006 20.5471 10.0793 19.0681 11.8927 18.3239C13.1909 17.8032 14.179 17.4124 14.9463 17.1104C17.1841 16.227 17.4467 16.117 17.9727 15.7379C18.5298 15.3353 18.895 14.8579 19.0151 14.3887C18.6692 14.3021 18.3079 14.1125 17.9669 13.8153C16.9865 12.9588 16.5525 11.5523 16.9962 10.6724Z" fill="url(#paint0_linear_1003_67)"/>
<defs>
<linearGradient id="paint0_linear_1003_67" x1="21.7543" y1="-12.5395" x2="-10.8715" y2="-12.5395" gradientUnits="userSpaceOnUse">
<stop stop-color="#804AF3"/>
<stop offset="0.348958" stop-color="#71DDB1"/>
<stop offset="1" stop-color="#F4FAFF"/>
</linearGradient>
</defs>
</svg>
